<svg width="21" height="21" viewBox="0 0 21 21" fill="none" xmlns="http://www.w3.org/2000/svg">
<path d="M7.875 20V12.6C7.875 12.0399 7.875 11.7599 7.98399 11.546C8.07987 11.3578 8.23285 11.2049 8.42101 11.109C8.63492 11 8.91495 11 9.475 11H12.275C12.8351 11 13.1151 11 13.329 11.109C13.5172 11.2049 13.6701 11.3578 13.766 11.546C13.875 11.7599 13.875 12.0399 13.875 12.6V20M9.8927 1.764L3.11039 7.03912C2.65702 7.39175 2.43034 7.56806 2.26703 7.78886C2.12237 7.98444 2.0146 8.20478 1.94903 8.43905C1.875 8.70352 1.875 8.9907 1.875 9.56505V16.8C1.875 17.9201 1.875 18.4801 2.09299 18.908C2.28473 19.2843 2.59069 19.5903 2.96702 19.782C3.39484 20 3.95489 20 5.075 20H16.675C17.7951 20 18.3552 20 18.783 19.782C19.1593 19.5903 19.4653 19.2843 19.657 18.908C19.875 18.4801 19.875 17.9201 19.875 16.8V9.56505C19.875 8.9907 19.875 8.70352 19.801 8.43905C19.7354 8.20478 19.6276 7.98444 19.483 7.78886C19.3197 7.56806 19.093 7.39175 18.6396 7.03913L11.8573 1.764C11.506 1.49075 11.3303 1.35412 11.1363 1.3016C10.9652 1.25526 10.7848 1.25526 10.6137 1.3016C10.4197 1.35412 10.244 1.49075 9.8927 1.764Z" stroke="#D9D9D9" stroke-width="2" stroke-linecap="round" stroke-linejoin="round"/>
</svg>
