<svg width="215" height="205" viewBox="0 0 215 205" fill="none" xmlns="http://www.w3.org/2000/svg">
<path d="M206.032 5.71521V42.7009H150.3L148.292 5.97104L206.032 5.71521Z" fill="#E0E0E0"/>
<path d="M148.292 5.97097V42.6232H204.024V5.97097H148.292Z" fill="white"/>
<path d="M204.292 42.8745H148.029V5.71973H204.292V42.8745ZM148.556 42.3719H203.76V6.22225H148.556V42.3719Z" fill="#E0E0E0"/>
<path d="M197.99 10.5255H154.331V38.0683H197.99V10.5255Z" fill="white"/>
<path d="M197.99 10.5256H197.774H197.156H194.759L185.763 10.5576L154.336 10.617L154.461 10.4982C154.461 18.9132 154.461 28.2373 154.461 38.0365L154.327 37.904L197.985 37.9314L197.875 38.0365C197.899 29.6535 197.918 22.7826 197.932 17.995C197.932 15.6057 197.956 13.7372 197.961 12.4535C197.961 11.8231 197.961 11.3388 197.961 11.0007C197.961 10.6673 197.961 10.4937 197.961 10.4937C197.961 10.4937 197.961 10.6535 197.961 10.9779C197.961 11.3023 197.961 11.7911 197.961 12.4124C197.961 13.6915 197.961 15.5509 197.99 17.931C197.99 22.7324 198.023 29.6261 198.047 38.0319V38.137H197.937L154.279 38.1644H154.14V38.0319C154.14 28.2327 154.14 18.9086 154.14 10.4937V10.3749H154.269L185.869 10.4662L194.836 10.4982H197.209H197.813L197.99 10.5256Z" fill="#E0E0E0"/>
<path d="M148.292 5.87036C148.636 6.02835 148.958 6.2263 149.251 6.45968C149.821 6.85257 150.598 7.40991 151.436 8.04948C152.275 8.68906 153.013 9.29209 153.531 9.74893C153.832 9.97394 154.101 10.235 154.331 10.5256C153.269 9.81371 152.245 9.05135 151.264 8.24136C150.223 7.51004 149.231 6.7182 148.292 5.87036Z" fill="#E0E0E0"/>
<path d="M204.029 5.97083C203.111 6.82868 202.131 7.62401 201.096 8.35096C200.115 9.14413 199.077 9.87076 197.99 10.5255C198.907 9.66644 199.887 8.87103 200.923 8.14538C201.904 7.35221 202.942 6.62558 204.029 5.97083Z" fill="#E0E0E0"/>
<path d="M203.981 42.6274L197.75 37.826L203.981 42.6274Z" fill="white"/>
<path d="M197.769 37.826C198.886 38.518 199.952 39.2812 200.961 40.1102C202.027 40.8777 203.036 41.7142 203.981 42.6137C202.864 41.9217 201.797 41.1586 200.789 40.3295C199.723 39.562 198.714 38.7256 197.769 37.826Z" fill="#E0E0E0"/>
<path d="M148.292 42.6231C149.2 41.7722 150.171 40.9844 151.197 40.2658C152.164 39.4792 153.191 38.7616 154.269 38.1187C153.362 38.9686 152.391 39.7549 151.364 40.4714C150.396 41.2584 149.369 41.9775 148.292 42.6231Z" fill="#E0E0E0"/>
<path d="M163.194 19.1048V28.3284H190.667V19.1048H163.194Z" fill="#E0E0E0"/>
<path d="M165.585 203.933H215L215 67.2239H165.585V203.933Z" fill="#E0E0E0"/>
<path d="M139.061 203.933H193.164L193.164 67.2239H139.061V203.933Z" fill="#F5F5F5"/>
<path d="M172.276 172.032H157.821C157.548 172.032 157.285 171.928 157.092 171.744C156.899 171.56 156.79 171.31 156.79 171.05V170.232H173.307V171.05C173.307 171.31 173.198 171.56 173.005 171.744C172.812 171.928 172.55 172.032 172.276 172.032Z" fill="#E0E0E0"/>
<path d="M141.453 170.232C141.453 170.232 141.453 170.396 141.453 170.725C141.453 171.054 141.453 171.552 141.453 172.192C141.453 173.494 141.453 175.39 141.424 177.834C141.424 182.745 141.391 189.808 141.367 198.455V198.561H141.477L189.689 198.588H189.852V198.455C189.852 188.469 189.852 178.944 189.852 170.273V170.154H189.703L154.916 170.182L144.99 170.205H142.359H141.683H141.463H141.702H142.388H145.043L155.003 170.246L189.703 170.337L189.574 170.214C189.574 178.894 189.574 188.41 189.574 198.396L189.713 198.268H189.684L141.472 198.296L141.578 198.396C141.554 189.776 141.535 182.731 141.52 177.838C141.52 175.39 141.52 173.48 141.496 172.174C141.496 171.525 141.496 171.031 141.496 170.689C141.496 170.346 141.453 170.232 141.453 170.232Z" fill="#E0E0E0"/>
<path d="M157.442 180.826H171.797V177.13H157.442V180.826Z" fill="#E0E0E0"/>
<path d="M172.933 139.14H158.482C158.209 139.14 157.947 139.036 157.753 138.852C157.56 138.668 157.451 138.418 157.451 138.157V137.34H173.963V138.157C173.963 138.418 173.854 138.668 173.661 138.852C173.468 139.036 173.206 139.14 172.933 139.14Z" fill="#E0E0E0"/>
<path d="M141.587 137.335C141.587 137.335 141.587 137.499 141.587 137.828C141.587 138.157 141.587 138.66 141.587 139.295C141.587 140.597 141.587 142.493 141.558 144.937C141.558 149.848 141.525 156.91 141.501 165.563V165.663H141.611L189.823 165.691H189.986V165.563C189.986 155.572 189.986 146.047 189.986 137.381V137.257H189.861L155.074 137.285L145.148 137.312H142.517H141.841H141.621H141.86H142.546H145.201L155.161 137.358L189.861 137.445L189.732 137.326C189.732 146.006 189.732 155.517 189.732 165.508L189.871 165.376H189.842L141.63 165.403L141.736 165.508C141.712 156.883 141.693 149.843 141.678 144.95C141.678 142.502 141.678 140.592 141.678 139.286C141.678 138.641 141.678 138.143 141.678 137.801C141.678 137.458 141.587 137.335 141.587 137.335Z" fill="#E0E0E0"/>
<path d="M158.525 147.71H172.88V144.014H158.525V147.71Z" fill="#E0E0E0"/>
<path d="M172.305 72.7563H157.849C157.576 72.7563 157.314 72.6529 157.12 72.4687C156.927 72.2845 156.819 72.0346 156.819 71.7741V70.9564H173.335V71.7741C173.335 71.9031 173.308 72.0308 173.257 72.15C173.205 72.2692 173.129 72.3775 173.033 72.4687C172.937 72.5599 172.824 72.6322 172.699 72.6816C172.574 72.7309 172.44 72.7563 172.305 72.7563Z" fill="#E0E0E0"/>
<path d="M141.477 70.9518C141.477 70.9518 141.477 71.1163 141.477 71.4452C141.477 71.7741 141.477 72.2766 141.477 72.9117C141.477 74.2136 141.477 76.1095 141.453 78.5536C141.453 83.4646 141.419 90.5274 141.396 99.1799V99.2804H141.501L189.718 99.3124H189.881V99.1799C189.881 89.1888 189.881 79.6637 189.881 70.9975V70.8741H189.703L154.921 70.9016L144.99 70.929H142.359H141.688H141.463C141.542 70.9329 141.622 70.9329 141.702 70.929H142.388H145.048L155.003 70.9701L189.703 71.0569L189.574 70.9381C189.574 79.618 189.574 89.1294 189.574 99.1205L189.713 98.988L141.496 99.0154L141.606 99.1205C141.582 90.4954 141.563 83.4555 141.549 78.5627C141.549 76.1141 141.525 74.2045 141.52 72.8979C141.52 72.2538 141.52 71.7558 141.52 71.4132C141.52 71.0706 141.477 70.9518 141.477 70.9518Z" fill="#E0E0E0"/>
<path d="M158.156 80.6639H172.511V76.9681H158.156V80.6639Z" fill="#E0E0E0"/>
<path d="M172.305 105.937H157.849C157.576 105.937 157.314 105.833 157.121 105.649C156.927 105.465 156.819 105.215 156.819 104.954V104.109H173.335V104.927C173.339 105.058 173.315 105.189 173.265 105.311C173.215 105.434 173.14 105.545 173.044 105.639C172.948 105.733 172.833 105.808 172.706 105.859C172.579 105.91 172.442 105.937 172.305 105.937Z" fill="#E0E0E0"/>
<path d="M141.477 104.118C141.477 104.118 141.477 104.283 141.477 104.612C141.477 104.941 141.477 105.439 141.477 106.078C141.477 107.38 141.477 109.276 141.453 111.72C141.453 116.631 141.419 123.694 141.396 132.342V132.442H141.501L189.718 132.47H189.881V132.337C189.881 122.351 189.881 112.826 189.881 104.155V104.036H189.703L154.921 104.063H144.99H142.359H141.688H141.463H141.702H142.388H145.048L155.003 104.105L189.703 104.196L189.574 104.073C189.574 112.752 189.574 122.268 189.574 132.255L189.713 132.127L141.496 132.154L141.606 132.255C141.582 123.634 141.563 116.59 141.549 111.697C141.549 109.249 141.525 107.339 141.52 106.032C141.52 105.384 141.52 104.89 141.52 104.548C141.52 104.205 141.477 104.118 141.477 104.118Z" fill="#E0E0E0"/>
<path d="M158.156 113.835H172.511V110.139H158.156V113.835Z" fill="#E0E0E0"/>
<path d="M62.9933 4.79224H11.1868V48.9686H62.9933V4.79224Z" fill="#FAFAFA"/>
<path d="M62.9932 48.9685C62.9932 48.9685 62.9932 48.6853 62.9932 48.1462C62.9932 47.6071 62.9932 46.8122 62.9932 45.7798C62.9932 43.7057 62.9932 40.6769 62.9597 36.812C62.9597 29.096 62.9261 18.0816 62.9021 4.79218L63.0172 4.90182H11.2155L11.3545 4.76934C11.3545 20.8409 11.3545 35.9623 11.3545 48.9457L11.2299 48.8269L48.7008 48.8863L59.2691 48.9183H62.0682H62.7871H63.0363H62.8015H62.0921H59.3218L48.7775 48.9457L11.2299 49.0051H11.11V48.8909C11.11 35.9075 11.11 20.7861 11.11 4.71452V4.58203H11.2538H63.0555H63.1753V4.69624C63.1466 17.9994 63.1274 29.0503 63.113 36.7892C63.113 40.6403 63.0891 43.6418 63.0843 45.7295C63.0843 46.7529 63.0843 47.5569 63.0843 48.0777C63.0843 48.5985 62.9932 48.9685 62.9932 48.9685Z" fill="#E0E0E0"/>
<path d="M31.0578 12.6405C31.0578 12.7136 28.3307 12.773 24.9661 12.773C21.6014 12.773 18.8791 12.7136 18.8791 12.6405C18.8791 12.5674 21.6014 12.5081 24.9661 12.5081C28.3307 12.5081 31.0578 12.5674 31.0578 12.6405Z" fill="#E0E0E0"/>
<path d="M53.0047 15.9482C53.0047 16.0213 45.5134 16.0806 36.2727 16.0806C27.032 16.0806 19.5551 16.0304 19.5551 15.9482C19.5551 15.8659 27.0464 15.8157 36.2871 15.8157C45.5278 15.8157 53.0047 15.8842 53.0047 15.9482Z" fill="#E0E0E0"/>
<path d="M21.1413 21.5764H18.9605V23.655H21.1413V21.5764Z" fill="#E0E0E0"/>
<path d="M26.5146 21.5764H24.3338V23.655H26.5146V21.5764Z" fill="#E0E0E0"/>
<path d="M31.9877 21.4806H29.8069V23.5592H31.9877V21.4806Z" fill="#E0E0E0"/>
<path d="M37.2598 21.5764H35.079V23.655H37.2598V21.5764Z" fill="#E0E0E0"/>
<path d="M42.6326 21.5764H40.4518V23.655H42.6326V21.5764Z" fill="#E0E0E0"/>
<path d="M48.0059 21.5764H45.8251V23.655H48.0059V21.5764Z" fill="#E0E0E0"/>
<path d="M53.3783 21.5764H51.1975V23.655H53.3783V21.5764Z" fill="#EBEBEB"/>
<path d="M21.1413 25.9988H18.9605V28.0774H21.1413V25.9988Z" fill="#EBEBEB"/>
<path d="M26.5146 25.9988H24.3338V28.0774H26.5146V25.9988Z" fill="#E0E0E0"/>
<path d="M31.8869 25.9988H29.7062V28.0774H31.8869V25.9988Z" fill="#EBEBEB"/>
<path d="M37.2598 25.9988H35.079V28.0774H37.2598V25.9988Z" fill="#E0E0E0"/>
<path d="M42.6326 25.9988H40.4518V28.0774H42.6326V25.9988Z" fill="#E0E0E0"/>
<path d="M48.1015 25.903H45.9207V27.9816H48.1015V25.903Z" fill="#E0E0E0"/>
<path d="M53.3783 25.9988H51.1975V28.0774H53.3783V25.9988Z" fill="#E0E0E0"/>
<path d="M21.1413 30.4211H18.9605V32.4998H21.1413V30.4211Z" fill="#E0E0E0"/>
<path d="M26.6149 30.3251H24.4341V32.4037H26.6149V30.3251Z" fill="#E0E0E0"/>
<path d="M31.8869 30.4211H29.7062V32.4998H31.8869V30.4211Z" fill="#E0E0E0"/>
<path d="M37.2598 30.4211H35.079V32.4998H37.2598V30.4211Z" fill="#EBEBEB"/>
<path d="M42.6326 30.4211H40.4518V32.4998H42.6326V30.4211Z" fill="#E0E0E0"/>
<path d="M48.0059 30.4211H45.8251V32.4998H48.0059V30.4211Z" fill="#E0E0E0"/>
<path d="M53.3783 30.4211H51.1975V32.4998H53.3783V30.4211Z" fill="#E0E0E0"/>
<path d="M21.1413 34.843H18.9605V36.9216H21.1413V34.843Z" fill="#E0E0E0"/>
<path d="M26.5146 34.843H24.3338V36.9216H26.5146V34.843Z" fill="#E0E0E0"/>
<path d="M31.8869 34.843H29.7062V36.9216H31.8869V34.843Z" fill="#E0E0E0"/>
<path d="M37.3605 34.7517H35.1798V36.8303H37.3605V34.7517Z" fill="#E0E0E0"/>
<path d="M42.6326 34.843H40.4518V36.9216H42.6326V34.843Z" fill="#E0E0E0"/>
<path d="M48.0059 34.843H45.8251V36.9216H48.0059V34.843Z" fill="#EBEBEB"/>
<path d="M53.3783 34.843H51.1975V36.9216H53.3783V34.843Z" fill="#E0E0E0"/>
<path d="M21.1413 39.2654H18.9605V41.344H21.1413V39.2654Z" fill="#E0E0E0"/>
<path d="M26.5146 39.2654H24.3338V41.344H26.5146V39.2654Z" fill="#EBEBEB"/>
<path d="M31.8869 39.2654H29.7062V41.344H31.8869V39.2654Z" fill="#E0E0E0"/>
<path d="M37.2598 39.2654H35.079V41.344H37.2598V39.2654Z" fill="#E0E0E0"/>
<path d="M42.6326 39.2654H40.4518V41.344H42.6326V39.2654Z" fill="#E0E0E0"/>
<path d="M48.1015 39.1738H45.9207V41.2524H48.1015V39.1738Z" fill="#E0E0E0"/>
<path d="M53.3783 39.2654H51.1975V41.344H53.3783V39.2654Z" fill="#E0E0E0"/>
<path d="M106.54 70.5683L88.6741 76.9792L93.2083 88.4588L111.074 82.0478L106.54 70.5683Z" fill="#EBEBEB"/>
<path d="M106.652 70.696C106.625 70.7713 106.59 70.8433 106.546 70.9108L106.216 71.5047C105.909 72.03 105.482 72.7701 104.96 73.6746C103.877 75.502 102.391 78.0329 100.752 80.8242L100.718 80.8836H100.646L100.483 80.8333L92.2012 78.243L89.6945 77.439L89.0187 77.2151C88.9373 77.1925 88.8586 77.1619 88.7838 77.1238C88.8666 77.1384 88.9482 77.1583 89.0282 77.1832L89.7184 77.3796L92.2395 78.1334L100.555 80.6551L100.718 80.7054L100.613 80.7465C102.276 77.9644 103.771 75.4517 104.869 73.6198L106.168 71.4727L106.532 70.8925C106.566 70.8237 106.606 70.758 106.652 70.696Z" fill="#E0E0E0"/>
<path d="M93.3177 88.5857C93.2746 88.5857 93.9935 86.5162 94.9329 83.9944C95.8723 81.4727 96.6632 79.426 96.7063 79.458C96.7494 79.49 96.0305 81.5321 95.0959 84.0264C94.1613 86.5207 93.3656 88.5857 93.3177 88.5857Z" fill="#E0E0E0"/>
<path d="M102.592 77.1878C102.616 77.1467 104.562 78.2339 106.934 79.609C109.307 80.9841 111.21 82.1353 111.186 82.1765C111.162 82.2176 109.216 81.1303 106.843 79.7506C104.471 78.371 102.568 77.2243 102.592 77.1878Z" fill="#E0E0E0"/>
<path d="M129.677 34.3359C130.133 34.0719 130.625 33.8676 131.138 33.7283L131.44 32.3578L133.885 32.3167L134.239 33.6872C134.757 33.8078 135.256 33.9953 135.72 34.2445L136.957 33.4725L138.716 35.0897L137.949 36.2957C138.226 36.7229 138.44 37.184 138.587 37.6662L140.024 37.9495L140.068 40.2839L138.63 40.6174C138.502 41.1115 138.307 41.5876 138.05 42.0336L138.86 43.2077L137.158 44.8843L135.898 44.1579C135.44 44.4186 134.949 44.6213 134.436 44.761L134.134 46.1315L131.69 46.1726L131.335 44.8021C130.818 44.6795 130.32 44.492 129.854 44.2447L128.617 45.0168L126.858 43.395L127.625 42.1935C127.347 41.7588 127.133 41.29 126.988 40.8002L125.55 40.5123L125.507 38.1825L126.945 37.8444C127.072 37.3515 127.267 36.8768 127.525 36.4328L126.715 35.2541L128.416 33.5775L129.677 34.3085V34.3359ZM130.98 37.4378C130.619 37.7935 130.376 38.2436 130.282 38.7309C130.189 39.2183 130.25 39.721 130.456 40.1756C130.663 40.6301 131.007 41.016 131.443 41.2844C131.88 41.5527 132.391 41.6916 132.91 41.6832C133.43 41.6749 133.935 41.5198 134.363 41.2376C134.79 40.9554 135.119 40.5587 135.31 40.0978C135.501 39.637 135.543 39.1325 135.433 38.6485C135.323 38.1644 135.064 37.7224 134.69 37.3784C134.444 37.1488 134.152 36.9676 133.832 36.8454C133.513 36.7232 133.171 36.6622 132.826 36.666C132.482 36.6698 132.141 36.7384 131.825 36.8677C131.508 36.997 131.221 37.1845 130.98 37.4195V37.4378Z" fill="#E0E0E0"/>
<path d="M130.98 37.4196C131.117 37.2609 131.278 37.1237 131.46 37.0131C131.776 36.8178 132.131 36.6887 132.503 36.6345C132.875 36.5802 133.255 36.602 133.618 36.6983C133.981 36.7946 134.317 36.9633 134.606 37.1933C134.895 37.4232 135.13 37.709 135.294 38.0318C135.531 38.4869 135.62 38.9993 135.548 39.5028C135.471 40.0452 135.216 40.5505 134.82 40.9464C134.42 41.3392 133.9 41.6001 133.334 41.6911C133.067 41.7321 132.795 41.7321 132.529 41.6911C132.27 41.6604 132.018 41.5926 131.781 41.4901C131.343 41.3009 130.966 41.0045 130.688 40.6312C130.45 40.3045 130.295 39.9289 130.238 39.5348C130.147 38.965 130.269 38.3829 130.583 37.8902C130.692 37.7181 130.829 37.5638 130.99 37.4334C130.99 37.4334 130.832 37.5978 130.631 37.9404C130.349 38.4292 130.248 38.9938 130.343 39.544C130.405 39.92 130.56 40.2769 130.794 40.5855C131.061 40.9379 131.422 41.2168 131.838 41.3941C132.062 41.4889 132.3 41.552 132.543 41.5815C132.797 41.6201 133.056 41.6201 133.31 41.5815C133.844 41.4946 134.336 41.2483 134.714 40.8779C135.089 40.5014 135.331 40.0219 135.404 39.5074C135.464 39.0386 135.383 38.5631 135.169 38.1369C134.971 37.744 134.666 37.4083 134.288 37.1638C133.956 36.9529 133.576 36.8198 133.18 36.7755C132.601 36.7041 132.014 36.8199 131.512 37.1044C131.148 37.2826 130.995 37.4516 130.98 37.4196Z" fill="#E0E0E0"/>
<path d="M129.677 34.3359L129.595 34.2948L129.355 34.1623L128.397 33.6233H128.426L126.739 35.3136V35.2679L127.553 36.442C127.298 36.8843 127.106 37.3576 126.983 37.849V37.8764H126.954L125.516 38.2191L125.555 38.1688C125.555 38.8998 125.588 39.6809 125.603 40.4987L125.56 40.4439L126.997 40.7271H127.031V40.7591C127.177 41.2406 127.39 41.7015 127.664 42.1296V42.1616V42.1936L126.916 43.459V43.3768L128.68 44.994H128.593L129.825 44.2174L129.864 44.1945L129.902 44.2174C130.363 44.4612 130.856 44.6455 131.369 44.7656H131.412V44.8067L131.762 46.1772L131.69 46.1269L134.134 46.0858L134.062 46.1406C134.158 45.6838 134.263 45.227 134.364 44.7701V44.729H134.407C134.913 44.5938 135.397 44.3924 135.845 44.1306H135.888H135.927L137.187 44.8615H137.096L138.793 43.1849V43.2717C138.52 42.8743 138.246 42.4814 137.983 42.0931L137.959 42.0565V42.02C138.217 41.5807 138.412 41.1106 138.539 40.622V40.5809H138.582L140.02 40.2474L139.967 40.316C139.967 39.5211 139.953 38.7444 139.924 37.9861L139.981 38.05L138.543 37.7577H138.505V37.7165C138.362 37.2353 138.153 36.7744 137.882 36.346V36.314V36.2821L138.649 35.076V35.1491L136.895 33.5273H136.967L135.73 34.2948H135.701H135.673C135.21 34.0496 134.715 33.8637 134.201 33.742H134.172V33.7146C134.048 33.2167 133.933 32.769 133.822 32.3441L133.87 32.3761L131.421 32.4035H131.455C131.33 32.9517 131.23 33.404 131.143 33.774C130.757 33.8743 130.383 34.0121 130.026 34.1852L129.763 34.3131L129.672 34.3588C129.696 34.3372 129.724 34.3188 129.753 34.3039L130.012 34.1623C130.368 33.9816 130.742 33.8362 131.129 33.7283C131.206 33.3537 131.301 32.9015 131.416 32.3578V32.3304H131.445L133.89 32.2802H133.928V32.3121C134.038 32.737 134.158 33.1847 134.287 33.6826L134.249 33.6507C134.773 33.7717 135.278 33.9591 135.749 34.208H135.692L136.928 33.436L136.967 33.4085L137 33.4405L138.759 35.0577L138.798 35.0897L138.769 35.1308L138.007 36.3369V36.2729C138.287 36.7119 138.503 37.1853 138.649 37.68L138.601 37.6343L140.039 37.9175H140.092V37.9678C140.092 38.7262 140.125 39.5028 140.14 40.2977V40.3525H140.082L138.644 40.6906L138.697 40.6403C138.568 41.1398 138.37 41.6207 138.107 42.0702V41.988L138.922 43.1666L138.951 43.2123L138.913 43.2534L137.211 44.93L137.173 44.9711L137.12 44.9437L135.855 44.2128H135.931C135.471 44.4796 134.974 44.6856 134.455 44.825L134.508 44.7701C134.402 45.227 134.302 45.7158 134.206 46.1406V46.2H134.148L131.704 46.2366H131.646V46.1818C131.522 45.7249 131.402 45.2407 131.292 44.8112L131.345 44.8615C130.821 44.7369 130.317 44.548 129.844 44.2996H129.921L128.684 45.0716L128.637 45.0991L128.598 45.0625L126.839 43.4407L126.801 43.4088L126.83 43.3631C127.098 42.9428 127.357 42.5316 127.596 42.1616V42.2255C127.318 41.7845 127.104 41.3097 126.959 40.8139L127.002 40.855L125.564 40.5672H125.516V40.5215C125.516 39.7038 125.488 38.9272 125.478 38.1917V38.1505H125.516L126.954 37.817L126.916 37.8764C127.045 37.3784 127.243 36.8991 127.505 36.4511V36.4968C127.213 36.0719 126.945 35.6745 126.7 35.3136L128.406 33.6461L129.365 34.1943L129.6 34.3405C129.653 34.3131 129.677 34.3314 129.677 34.3359Z" fill="#E0E0E0"/>
<path d="M11.1675 199.287C10.2904 198.574 8.33971 196.304 9.84469 193.668C10.3959 192.704 11.5701 192.224 12.6294 191.799C13.6886 191.374 14.8053 191.004 15.6824 190.292C17.3408 188.949 17.7961 186.719 18.8937 184.928C20.159 182.873 22.5123 181.329 24.9998 181.438C27.8756 181.562 30.2241 183.782 31.3025 186.308C32.3809 188.834 32.4193 191.644 32.4384 194.376C32.4384 195.888 32.3809 197.574 31.2162 198.611C30.1474 199.552 28.5322 199.561 27.08 199.524L11.5078 199.068" fill="#F5F5F5"/>
<path d="M40.9458 158.482H0L7.37628 200.402C7.52782 201.275 7.9367 202.09 8.55529 202.751C9.17389 203.412 9.97673 203.891 10.8703 204.134L11.0141 204.175C11.1339 204.203 11.2537 204.244 11.3783 204.262C11.653 204.316 11.9321 204.346 12.2123 204.353V204.394L12.4136 204.362H30.6698C31.006 204.362 31.3414 204.332 31.6715 204.271C32.7395 204.113 33.7234 203.625 34.4723 202.882C35.2213 202.139 35.6938 201.183 35.8174 200.16L39.3689 171.274L39.5319 170.122L40.941 158.701L40.9458 158.482ZM33.2244 185.216H29.021L29.4428 173.051H34.3124L33.2244 185.216ZM34.7198 173.051H38.7267L37.2265 185.216H33.6318L34.7198 173.051ZM22.7375 198.707L22.4835 188.135H28.513L28.1439 198.707H22.7375ZM16.1713 188.135H22.0521L22.3062 198.707H17.034L16.1713 188.135ZM16.6505 198.707H11.6995C11.2202 195.851 10.6211 192.142 9.95965 188.135H15.7639L16.6505 198.707ZM15.9604 185.216L14.9682 173.051H21.6879L21.9802 185.216H15.9604ZM22.4116 185.216L22.1192 173.051H29.0354L28.6136 185.216H22.4116ZM22.0473 170.141L21.7742 158.875H29.5339L29.1408 170.131L22.0473 170.141ZM21.64 170.141H14.7046L13.8036 158.866H21.3476L21.64 170.141ZM14.2828 170.131H6.98326C6.72444 168.578 6.48 167.103 6.25474 165.778C5.49267 161.209 5.20509 159.51 5.04693 158.866H13.377L14.2828 170.131ZM14.5225 173.051L15.5146 185.216H9.48995C9.28385 183.983 9.07776 182.736 8.87166 181.484L7.47693 173.051H14.5225ZM9.06817 185.216H5.11403L2.97639 173.051H7.05515C7.67823 176.81 8.3732 180.995 9.06817 185.216ZM9.54746 188.135C10.1514 191.79 10.7409 195.399 11.2873 198.707H7.49131L5.62687 188.135H9.54746ZM28.5513 198.707L28.9204 188.135H32.9752L32.0166 198.707H28.5513ZM29.5434 170.131L29.9365 158.866H35.5825L34.576 170.131H29.5434ZM4.6587 158.866C4.82166 159.679 5.56935 164.115 6.57586 170.131H2.46355L0.47929 158.866H4.6587ZM35.5873 198.707H32.4192L33.3778 188.135H36.8958L35.5873 198.707ZM39.1053 170.131H34.9834L35.9947 158.866H40.4904L39.1053 170.131Z" fill="#E0E0E0"/>
<path d="M207.676 203.933C207.676 204.002 163.793 204.052 109.666 204.052C55.5401 204.052 11.6467 204.002 11.6467 203.933C11.6467 203.865 55.5209 203.814 109.666 203.814C163.812 203.814 207.676 203.869 207.676 203.933Z" fill="#263238"/>
<path d="M165.926 99.9293C165.926 99.9293 171.586 93.7209 173.724 87.5079C175.861 81.2948 174.845 82.0258 174.845 82.0258C174.845 82.0258 171.969 88.0561 169.774 90.9707C167.579 93.8853 163.682 98.1613 163.682 98.1613L165.926 99.9293Z" fill="#455A64"/>
<path d="M164.78 82.9759C164.818 82.9129 164.879 82.8646 164.95 82.8391C165.022 82.8137 165.101 82.8127 165.173 82.8365C165.246 82.8602 165.307 82.9071 165.347 82.9691C165.387 83.0312 165.404 83.1047 165.393 83.1769C165.048 85.3606 164.301 90.4864 164.329 93.7985C164.368 98.111 164.329 99.7785 164.329 99.7785H161.971C161.971 99.7785 162.393 90.861 162.93 88.1428C163.278 86.3435 163.901 84.6026 164.78 82.9759Z" fill="#455A64"/>
<path d="M163.515 99.0567C162.526 96.9242 161.872 94.6645 161.573 92.3504C161.382 90.7606 161.727 88.6134 162.24 85.7536C162.439 84.6982 162.54 83.6281 162.542 82.5557C162.539 82.4374 162.495 82.3232 162.418 82.2308C162.34 82.1383 162.233 82.0727 162.113 82.0442C161.992 82.0156 161.865 82.0256 161.751 82.0726C161.637 82.1197 161.543 82.2011 161.482 82.3045C160.912 83.307 160.471 84.3716 160.169 85.4749C159.599 88.3028 158.952 89.7144 159.445 92.4006C159.939 95.0868 161.765 99.2121 161.765 99.2121L163.515 99.0567Z" fill="#455A64"/>
<path d="M161.391 99.2349C161.391 99.2349 155.16 86.5028 154.743 84.616C154.326 82.7293 152.85 78.371 152.678 78.6177C152.505 78.8644 152.246 81.1669 153.368 83.7937C154.489 86.4205 159.268 99.6232 159.268 99.6232H161.391" fill="#455A64"/>
<path d="M164.195 98.6684C164.195 98.6684 164.257 98.6319 164.368 98.5542C164.478 98.4766 164.646 98.3624 164.847 98.2025C165.427 97.7603 165.984 97.2907 166.515 96.7954C168.26 95.1527 169.772 93.2989 171.011 91.2813C172.256 89.2652 173.293 87.1385 174.107 84.9313C174.423 84.0861 174.648 83.3963 174.797 82.9121C174.874 82.6745 174.926 82.4872 174.96 82.3593C174.984 82.2957 175 82.2298 175.008 82.1628C175.008 82.1628 174.979 82.2268 174.936 82.3501L174.749 82.8984C174.586 83.3552 174.342 84.0633 174.021 84.9039C173.188 87.0952 172.149 89.2099 170.915 91.222C169.677 93.2335 168.178 95.0878 166.453 96.7406C165.791 97.371 165.221 97.8507 164.818 98.1751L164.339 98.5405C164.287 98.5791 164.239 98.6219 164.195 98.6684Z" fill="#263238"/>
<path d="M163.515 92.5604C163.545 92.4374 163.564 92.312 163.572 92.1858C163.601 91.9208 163.639 91.5782 163.682 91.1625C163.783 90.3036 163.936 89.1158 164.162 87.8093C164.387 86.5027 164.641 85.3286 164.818 84.4835L165.044 83.4784C165.078 83.3574 165.101 83.2335 165.111 83.1084C165.064 83.2265 165.024 83.347 164.991 83.4693C164.924 83.7023 164.833 84.0404 164.722 84.4652C164.512 85.3058 164.243 86.4799 164.032 87.791C163.821 89.1021 163.673 90.2899 163.596 91.1533C163.558 91.5873 163.534 91.9391 163.524 92.1812C163.508 92.307 163.504 92.434 163.515 92.5604Z" fill="#263238"/>
<path d="M162.057 82.2267C162.029 82.2779 162.005 82.3314 161.986 82.3866L161.799 82.8434C161.717 83.049 161.621 83.3003 161.53 83.6018C161.439 83.9033 161.319 84.2368 161.228 84.6205C161.18 84.8124 161.128 85.0134 161.075 85.219C161.022 85.4246 160.989 85.6484 160.941 85.8768C160.835 86.3337 160.773 86.8179 160.701 87.3296C160.564 88.4499 160.514 89.5783 160.552 90.7056C160.599 91.8339 160.731 92.9575 160.945 94.068C161.061 94.575 161.161 95.0593 161.295 95.5024C161.362 95.7263 161.415 95.9593 161.482 96.1466L161.679 96.7359C161.799 97.1105 161.942 97.4394 162.057 97.7318C162.172 98.0242 162.283 98.2709 162.383 98.4673L162.604 98.9242C162.627 98.9785 162.656 99.0305 162.69 99.0795C162.69 99.0795 162.69 99.0201 162.628 98.9105C162.565 98.8008 162.513 98.6363 162.426 98.4536C162.34 98.2709 162.235 97.9968 162.129 97.709C162.024 97.4212 161.88 97.0877 161.77 96.713L161.578 96.1237C161.516 95.9227 161.463 95.7034 161.401 95.4796C161.271 95.0227 161.176 94.5659 161.065 94.0497C160.86 92.9458 160.73 91.8302 160.677 90.7102C160.643 89.5892 160.69 88.4674 160.816 87.3524C160.888 86.8408 160.945 86.3519 161.041 85.9042C161.089 85.6758 161.123 85.4474 161.171 85.251C161.219 85.0545 161.271 84.8398 161.315 84.6525C161.401 84.2688 161.511 83.9307 161.597 83.6292C161.684 83.3277 161.77 83.0764 161.842 82.8663L162.005 82.3866C162.029 82.3355 162.047 82.2818 162.057 82.2267Z" fill="#263238"/>
<path d="M152.75 78.8734C152.75 78.8734 152.75 78.8734 152.75 78.9328V79.0973C152.779 79.2434 152.812 79.4582 152.875 79.7323C152.994 80.2805 153.196 81.0662 153.507 82.0165C153.819 82.9667 154.241 84.0905 154.744 85.324C155.247 86.5574 155.827 87.9006 156.378 89.3305C156.929 90.7604 157.37 92.1492 157.778 93.4146C158.185 94.68 158.559 95.813 158.928 96.7541C159.206 97.4951 159.526 98.2211 159.887 98.9286C160.011 99.1799 160.126 99.3855 160.203 99.4997L160.289 99.6459C160.298 99.6623 160.31 99.6777 160.323 99.6916C160.317 99.6726 160.309 99.6542 160.299 99.6367L160.227 99.486C160.16 99.3535 160.054 99.1616 159.935 98.9104C159.576 98.1972 159.256 97.4668 158.976 96.7221C158.616 95.781 158.247 94.6481 157.85 93.3826C157.452 92.1172 157.02 90.7192 156.46 89.2711C155.899 87.8229 155.319 86.4981 154.816 85.2692C154.312 84.0403 153.857 82.9256 153.55 81.9753C153.244 81.0251 153.018 80.2394 152.879 79.6912C152.812 79.4216 152.769 79.2069 152.736 79.0653L152.692 78.9008L152.75 78.8734Z" fill="#263238"/>
<path d="M171.916 76.0639C172.003 75.9865 172.113 75.9385 172.231 75.9271C172.348 75.9158 172.467 75.9419 172.567 76.0013C172.668 76.0607 172.745 76.1501 172.787 76.2556C172.829 76.3611 172.833 76.4768 172.798 76.5847C172.582 77.2383 172.321 77.8777 172.017 78.4988C171.159 80.2302 168.662 86.4387 167.473 89.8513C166.285 93.2639 164.646 99.6231 164.646 99.6231L162.134 99.2348C162.134 99.2348 164.43 88.7823 166.673 85.0133C168.475 81.9845 170.277 77.6217 171.916 76.0639Z" fill="#455A64"/>
<path d="M166.788 91.9849C166.734 92.0743 166.69 92.1693 166.659 92.2681C166.587 92.4554 166.486 92.7249 166.371 93.0721C166.141 93.7528 165.858 94.7076 165.571 95.7675C165.283 96.8274 165.048 97.7867 164.885 98.4857C164.809 98.8192 164.746 99.0933 164.698 99.3171C164.669 99.4169 164.651 99.5196 164.646 99.6232C164.691 99.5282 164.725 99.4286 164.746 99.3263C164.809 99.1116 164.885 98.8329 164.976 98.5085L165.7 95.7995C165.983 94.7396 166.251 93.7848 166.462 93.0996C166.558 92.7752 166.644 92.5011 166.707 92.2864C166.746 92.1893 166.773 92.0881 166.788 91.9849Z" fill="#263238"/>
<path d="M163.385 99.4314V99.3674L163.414 99.1801C163.438 99.0111 163.462 98.769 163.515 98.4538C163.606 97.8233 163.773 96.9188 164.042 95.8178C164.362 94.5243 164.754 93.2479 165.216 91.9941C165.729 90.5778 166.376 89.0474 167.109 87.4622C168.585 84.2963 170.057 81.4913 171.025 79.4127C171.504 78.3802 171.897 77.5351 172.147 76.9458C172.271 76.6488 172.362 76.4204 172.429 76.2651C172.458 76.192 172.477 76.1326 172.496 76.0869C172.516 76.0412 172.52 76.0229 172.496 76.0229L172.468 76.0823C172.444 76.128 172.42 76.1828 172.386 76.2559C172.309 76.4158 172.209 76.6397 172.079 76.9229C171.816 77.5077 171.423 78.3483 170.924 79.3761C169.932 81.4411 168.446 84.2415 166.965 87.4119C166.232 88.9972 165.59 90.5322 165.082 91.9575C164.622 93.2146 164.238 94.4959 163.931 95.7949C163.725 96.6715 163.565 97.5573 163.452 98.4492C163.409 98.7598 163.395 99.0111 163.376 99.1756V99.3629C163.379 99.4085 163.382 99.4314 163.385 99.4314Z" fill="#263238"/>
<path d="M162.134 99.235C162.174 99.1035 162.203 98.969 162.22 98.833C162.268 98.5543 162.335 98.1842 162.417 97.7365C162.589 96.8229 162.853 95.53 163.232 94.1412C163.61 92.7524 164.032 91.5144 164.358 90.6281C164.516 90.1987 164.65 89.8469 164.751 89.5774C164.805 89.4515 164.848 89.3216 164.88 89.1891C164.812 89.3081 164.753 89.4318 164.703 89.5591C164.593 89.8013 164.439 90.153 164.267 90.5961C163.816 91.7476 163.428 92.9201 163.102 94.1092C162.724 95.4798 162.474 96.7863 162.321 97.7183C162.249 98.1751 162.196 98.5634 162.168 98.8284C162.146 98.9629 162.134 99.0988 162.134 99.235Z" fill="#263238"/>
<path d="M156.987 110.267H166.779V98.8922H156.987V110.267Z" fill="#15B86C"/>
<g opacity="0.3">
<path d="M156.987 110.267H166.779V98.8922H156.987V110.267Z" fill="black"/>
</g>
<path d="M160.107 110.267H168.796V98.8922H160.107V110.267Z" fill="#15B86C"/>
<path d="M78.7737 5.20894L60.5923 10.7562L64.5156 22.4384L82.697 16.8912L78.7737 5.20894Z" fill="#15B86C"/>
<path d="M78.8818 5.32251C78.8486 5.39586 78.8084 5.46619 78.7619 5.53266C78.6709 5.67884 78.5511 5.87072 78.3977 6.10827L77.0317 8.21887L72.4545 15.1583L72.4161 15.2131H72.349L72.1909 15.1537L64.0429 12.1751L61.5842 11.2614L60.918 11.0056C60.8383 10.9787 60.7613 10.9451 60.6879 10.9051C60.7699 10.9205 60.8502 10.9435 60.9276 10.9736L61.6081 11.202L64.0861 12.0746L72.234 15.0121L72.397 15.0669L72.2915 15.1034L76.9167 8.18689C77.5062 7.3189 77.9855 6.6108 78.3306 6.10827L78.7188 5.54636C78.7659 5.46718 78.8204 5.39226 78.8818 5.32251Z" fill="#263238"/>
<path d="M64.6082 22.5543C64.565 22.5543 65.3942 20.5168 66.4582 18.0453C67.5222 15.5738 68.4281 13.5819 68.4712 13.6002C68.5144 13.6185 67.69 15.6377 66.6212 18.1092C65.5524 20.5807 64.6657 22.5725 64.6082 22.5543Z" fill="#263238"/>
<path d="M74.4816 11.6085C74.5104 11.5719 76.3988 12.7506 78.6898 14.2399C80.9808 15.7292 82.8309 16.9809 82.8021 16.9809C82.7734 16.9809 80.8849 15.8434 78.5939 14.3541C76.3029 12.8648 74.4529 11.6496 74.4816 11.6085Z" fill="#263238"/>
<path d="M159.105 30.535L145.575 25.0849C145.133 24.9001 144.784 24.5571 144.605 24.1298C144.426 23.7025 144.43 23.2252 144.616 22.8007L152.553 4.94745C152.746 4.52518 153.106 4.19243 153.555 4.02138C154.003 3.85034 154.504 3.85479 154.95 4.03377L163.534 7.49661L167.272 16.7065L161.521 29.6487C161.322 30.0698 160.956 30.3991 160.504 30.565C160.052 30.7309 159.549 30.7202 159.105 30.535Z" fill="#15B86C"/>
<path d="M163.529 7.45105L161.295 12.4763C161.207 12.6733 161.16 12.885 161.158 13.0992C161.156 13.3135 161.198 13.5261 161.282 13.7247C161.366 13.9234 161.491 14.1043 161.649 14.2569C161.806 14.4096 161.994 14.531 162.201 14.6143L167.267 16.6609L163.529 7.45105Z" fill="#15B86C"/>
<g opacity="0.2">
<path d="M161.166 12.947C161.004 13.3291 160.981 13.7524 161.103 14.148C161.225 14.5436 161.484 14.8883 161.837 15.1261C161.885 15.1637 161.934 15.1988 161.986 15.2312C162.599 15.6104 166.625 18.1093 166.668 18.0134L167.267 16.6428L162.201 14.5962C162.201 14.5962 160.946 14.0617 161.166 12.947Z" fill="black"/>
</g>
<g opacity="0.3">
<path d="M163.529 7.45105L161.295 12.4763C161.207 12.6733 161.16 12.885 161.158 13.0992C161.156 13.3135 161.198 13.5261 161.282 13.7247C161.366 13.9234 161.491 14.1043 161.649 14.2569C161.806 14.4096 161.994 14.531 162.201 14.6143L167.267 16.6609L163.529 7.45105Z" fill="white"/>
</g>
<path d="M160.251 11.8366C159.16 11.5341 158.096 11.1507 157.068 10.69C156.006 10.3078 154.976 9.84966 153.986 9.31946C155.079 9.61913 156.145 10.0026 157.174 10.4661C158.235 10.8454 159.264 11.3036 160.251 11.8366Z" fill="#FAFAFA"/>
<path d="M163.031 16.2865C163.002 16.3505 160.673 15.4733 157.826 14.3221C154.979 13.1709 152.697 12.1932 152.726 12.1247C152.755 12.0562 155.084 12.9424 157.931 14.0891C160.778 15.2358 163.059 16.2225 163.031 16.2865Z" fill="#FAFAFA"/>
<path d="M162.906 19.0364C162.878 19.1004 160.337 18.1227 157.236 16.8847C154.135 15.6467 151.643 14.5777 151.672 14.5C151.701 14.4223 154.236 15.4137 157.342 16.6517C160.448 17.8897 162.935 18.9679 162.906 19.0364Z" fill="#FAFAFA"/>
<path d="M161.905 21.2751C161.876 21.3391 159.34 20.3614 156.239 19.1234C153.138 17.8853 150.646 16.8026 150.67 16.7387C150.694 16.6747 153.239 17.6524 156.34 18.8904C159.441 20.1284 161.938 21.2066 161.905 21.2751Z" fill="#FAFAFA"/>
<path d="M160.917 23.5089C160.888 23.5775 158.348 22.5953 155.247 21.3618C152.146 20.1283 149.654 19.041 149.682 18.9771C149.711 18.9131 152.247 19.8908 155.352 21.1288C158.458 22.3668 160.946 23.445 160.917 23.5089Z" fill="#FAFAFA"/>
<path d="M159.92 25.7475C159.892 25.816 157.351 24.8338 154.25 23.6003C151.149 22.3669 148.657 21.2796 148.686 21.2156C148.715 21.1517 151.255 22.1293 154.356 23.3628C157.457 24.5962 159.949 25.6835 159.92 25.7475Z" fill="#FAFAFA"/>
<path d="M113.601 34.3224C123.488 34.3224 131.503 26.6831 131.503 17.2595C131.503 7.83587 123.488 0.196533 113.601 0.196533C103.715 0.196533 95.7 7.83587 95.7 17.2595C95.7 26.6831 103.715 34.3224 113.601 34.3224Z" fill="white"/>
<path d="M131.503 17.2596C131.503 17.2596 131.503 17.1682 131.474 16.9855C131.445 16.8027 131.44 16.5286 131.416 16.1723C131.416 15.9941 131.392 15.7977 131.378 15.5784C131.364 15.3591 131.306 15.1216 131.268 14.8658C131.187 14.2717 131.063 13.6839 130.894 13.1069C130.476 11.5111 129.807 9.98473 128.91 8.57964C127.61 6.51553 125.866 4.73716 123.794 3.36156C121.721 1.98597 119.366 1.04435 116.884 0.598663C116.142 0.467105 115.391 0.384677 114.636 0.351969C114.253 0.351969 113.865 0.301716 113.476 0.306284L112.297 0.365674C112.101 0.365674 111.9 0.365675 111.703 0.402222L111.109 0.489021C110.716 0.552978 110.313 0.598662 109.915 0.676325C108.284 1.02567 106.706 1.57542 105.223 2.31181C104.849 2.50368 104.49 2.7321 104.116 2.94225C103.934 3.05189 103.742 3.14783 103.565 3.27117L103.042 3.64578C101.591 4.65028 100.322 5.87397 99.2847 7.26852L98.8773 7.78931L98.5179 8.34666L98.1584 8.88573C98.0317 9.06936 97.9195 9.26177 97.8229 9.46134C97.6264 9.85879 97.4251 10.2562 97.219 10.6583L96.7397 11.91C96.1548 13.6395 95.8446 15.4426 95.8194 17.2596C95.8446 19.0751 96.1548 20.8767 96.7397 22.6046C96.8979 23.0249 97.0608 23.4452 97.219 23.8609C97.3771 24.2766 97.6216 24.6604 97.8229 25.0533C97.9184 25.2549 98.0306 25.4489 98.1584 25.6335L98.5179 26.1954L98.8725 26.7527L99.2847 27.2735C99.8163 27.9658 100.398 28.6222 101.025 29.2379C101.658 29.825 102.333 30.3713 103.042 30.8734L103.565 31.248C103.742 31.3713 103.934 31.4673 104.116 31.5769C104.49 31.7871 104.849 32.0338 105.223 32.2074C106.706 32.9438 108.284 33.4935 109.915 33.8429C110.313 33.9251 110.716 33.9662 111.114 34.0302L111.703 34.117C111.904 34.117 112.101 34.117 112.297 34.1535L113.496 34.222C113.884 34.222 114.272 34.1901 114.656 34.1809C115.41 34.1467 116.161 34.0627 116.903 33.9297C119.386 33.4856 121.742 32.5447 123.814 31.1689C125.887 29.7932 127.631 28.0139 128.929 25.9487C129.818 24.5453 130.481 23.0222 130.894 21.4305C131.063 20.8535 131.187 20.2658 131.268 19.6717C131.306 19.4159 131.354 19.1783 131.378 18.959C131.402 18.7397 131.407 18.5433 131.416 18.3651C131.442 18.0119 131.461 17.7423 131.474 17.5565C131.474 17.3738 131.503 17.2779 131.503 17.2779C131.503 17.2779 131.503 17.3738 131.503 17.5565C131.503 17.7393 131.503 18.0134 131.474 18.3651C131.474 18.5479 131.474 18.7443 131.445 18.9682C131.416 19.192 131.383 19.425 131.344 19.6808C131.271 20.2715 131.152 20.8562 130.99 21.4305C130.584 23.0394 129.923 24.5799 129.029 25.9989C127.731 28.0926 125.98 29.8989 123.892 31.2978C121.805 32.6967 119.429 33.6561 116.923 34.1124C116.172 34.2467 115.413 34.3322 114.651 34.3682C114.263 34.3682 113.87 34.4185 113.476 34.4139L112.283 34.3591C112.082 34.3591 111.88 34.3591 111.679 34.3225L111.099 34.222C110.697 34.1581 110.289 34.117 109.887 34.0347C109.073 33.8648 108.272 33.642 107.49 33.3677C106.683 33.0933 105.897 32.7667 105.137 32.3901C104.758 32.1937 104.389 31.9652 104.015 31.7505C103.828 31.6363 103.632 31.5404 103.455 31.417L102.927 31.0379C102.208 30.5298 101.524 29.9773 100.881 29.3841C100.244 28.7593 99.6534 28.0938 99.1122 27.3923L98.6952 26.8669L98.3309 26.3004L97.9715 25.7294C97.8413 25.5437 97.7275 25.3482 97.6312 25.1446C97.4299 24.7426 97.2238 24.3406 97.0225 23.934L96.5432 22.6594C95.9523 20.9075 95.639 19.0814 95.6134 17.2413C95.6281 15.4074 95.9302 13.5858 96.5096 11.8369L96.9889 10.5669L97.6024 9.3517C97.6981 9.14877 97.8103 8.95326 97.9379 8.76695L98.3022 8.20047L98.6616 7.63399L99.0786 7.10405C99.6211 6.40489 100.212 5.741 100.847 5.1168C101.491 4.52358 102.174 3.97115 102.894 3.46304L103.421 3.08387C103.598 2.96052 103.795 2.86458 103.982 2.75038C104.356 2.54023 104.725 2.29354 105.103 2.11537C106.607 1.37265 108.205 0.818327 109.858 0.466179C110.26 0.388516 110.668 0.342833 111.07 0.278875L111.67 0.192074C111.871 0.192074 112.072 0.192075 112.273 0.155528L113.467 0.100708C113.86 0.100708 114.248 0.132686 114.636 0.146391C115.4 0.184393 116.161 0.269852 116.913 0.402222C119.419 0.858463 121.795 1.8179 123.883 3.2168C125.97 4.61569 127.721 6.42199 129.02 8.51569C129.913 9.93472 130.574 11.4752 130.98 13.0841C131.142 13.666 131.259 14.2584 131.33 14.8566C131.368 15.117 131.412 15.3546 131.431 15.5739L131.459 16.1723C131.459 16.5241 131.483 16.7936 131.488 16.9855C131.493 17.1774 131.503 17.2596 131.503 17.2596Z" fill="#263238"/>
<path d="M122.09 16.7797C121.855 16.8619 121.615 16.9275 121.371 16.9762L119.372 17.433C117.68 17.8076 115.332 18.3147 112.705 18.8629L112.557 18.8949V18.2325C112.557 15.56 112.557 13.1387 112.59 11.3799C112.59 10.5393 112.624 9.84034 112.633 9.30584C112.626 9.05221 112.642 8.79846 112.681 8.54749C112.717 8.79875 112.733 9.05226 112.729 9.30584C112.729 9.84034 112.753 10.5393 112.768 11.3799C112.768 13.1342 112.806 15.5554 112.806 18.2325V18.7304L112.652 18.6117C115.279 18.068 117.632 17.5883 119.334 17.2411L121.347 16.862C121.591 16.8127 121.84 16.7852 122.09 16.7797Z" fill="#263238"/>
<path d="M132.783 24.2947C132.8 24.1994 132.827 24.1061 132.864 24.016C132.917 23.8379 133.027 23.5592 133.123 23.2394C133.432 22.281 133.665 21.3022 133.823 20.3111C134.371 17.0361 134.043 13.6823 132.87 10.56C131.697 7.43775 129.717 4.64792 127.113 2.44866C126.332 1.78343 125.503 1.17272 124.63 0.621302C124.323 0.415724 124.069 0.278672 123.911 0.164462C123.824 0.116232 123.74 0.0612265 123.662 0C123.759 0.02764 123.851 0.0692338 123.935 0.123347C124.103 0.214715 124.367 0.33806 124.683 0.534501C125.584 1.06273 126.437 1.66175 127.233 2.32531C129.892 4.51875 131.912 7.33068 133.094 10.4878C134.277 13.645 134.582 17.04 133.981 20.343C133.811 21.3328 133.556 22.3076 133.219 23.2577C133.104 23.5957 132.979 23.8516 132.912 24.0252C132.88 24.1194 132.837 24.2099 132.783 24.2947Z" fill="#263238"/>
<path d="M136.214 15.898C136.176 15.898 136.152 15.2173 136.008 14.13C135.816 12.7162 135.479 11.3238 135.002 9.9728C134.52 8.62746 133.899 7.33124 133.147 6.10338C132.562 5.15772 132.14 4.60951 132.188 4.58667C132.317 4.68958 132.43 4.80958 132.524 4.943C132.72 5.1897 133.003 5.5506 133.31 6.01201C134.125 7.22686 134.785 8.53055 135.275 9.89514C135.768 11.2596 136.09 12.675 136.234 14.1118C136.286 14.66 136.301 15.1077 136.301 15.4183C136.298 15.5815 136.269 15.7434 136.214 15.898Z" fill="#263238"/>
<path d="M95.7289 7.37805C95.7003 7.46921 95.66 7.55666 95.6091 7.63845C95.5228 7.80748 95.3742 8.04504 95.2208 8.36939C93.416 11.7871 92.6877 15.6298 93.124 19.4335C93.5603 23.2371 95.1425 26.839 97.6796 29.8043C98.34 30.5827 99.0576 31.3155 99.8268 31.9971C100.095 32.2438 100.306 32.4174 100.464 32.5453C100.541 32.6072 100.613 32.6743 100.68 32.7463C100.59 32.7016 100.506 32.6464 100.431 32.5819C100.277 32.4677 100.043 32.3032 99.7645 32.0656C98.964 31.4061 98.2218 30.6849 97.5454 29.9094C95.2835 27.3415 93.7578 24.259 93.1169 20.9622C92.4761 17.6654 92.7419 14.2666 93.8884 11.0967C94.2265 10.1419 94.6481 9.2158 95.1489 8.32828C95.3167 8.00849 95.4797 7.7755 95.5755 7.61561C95.6196 7.53251 95.6709 7.45305 95.7289 7.37805Z" fill="#263238"/>
<path d="M90.9406 15.1489C90.9837 15.1489 90.8926 15.8296 90.8543 16.926C90.8034 18.3498 90.9046 19.7749 91.1563 21.1792C91.413 22.5849 91.8176 23.9624 92.3641 25.2908C92.781 26.3095 93.107 26.9171 93.0686 26.9354C92.9608 26.8117 92.8705 26.675 92.8002 26.5288C92.6421 26.2593 92.4312 25.8618 92.2011 25.3547C91.5994 24.0383 91.1649 22.6579 90.907 21.2432C90.6525 19.8224 90.5753 18.3778 90.677 16.9397C90.7201 16.387 90.7776 15.9438 90.8303 15.6377C90.8438 15.4708 90.8809 15.3064 90.9406 15.1489Z" fill="#263238"/>
<path d="M128.421 20.06C127.745 19.9275 127.199 19.8133 127.199 19.8087C127.199 19.8042 127.75 19.9047 128.426 20.0372C129.102 20.1696 129.648 20.2793 129.643 20.2839C129.638 20.2884 129.092 20.2108 128.421 20.06Z" fill="#263238"/>
<path d="M126.686 24.3769C126.092 24.0434 125.612 23.7693 125.612 23.7647C125.612 23.7601 126.092 24.0251 126.696 24.3586C127.299 24.6921 127.769 24.9662 127.764 24.9708C127.76 24.9753 127.275 24.7104 126.686 24.3769Z" fill="#263238"/>
<path d="M123.561 27.9038C123.11 27.4013 122.751 26.9901 122.756 26.9901C122.761 26.9901 123.13 27.3876 123.575 27.9038C124.021 28.42 124.385 28.8175 124.376 28.8175C124.366 28.8175 124.04 28.4017 123.561 27.9038Z" fill="#263238"/>
<path d="M119.435 30.2794C119.181 29.6673 118.979 29.1693 118.984 29.1693C118.989 29.1693 119.2 29.6581 119.463 30.2703C119.727 30.8825 119.919 31.3758 119.909 31.3804C119.9 31.385 119.689 30.887 119.435 30.2794Z" fill="#263238"/>
<path d="M114.709 31.2434C114.68 30.5856 114.661 30.0557 114.665 30.0557C114.67 30.0557 114.704 30.5856 114.733 31.2434C114.761 31.9013 114.785 32.4312 114.78 32.4312C114.776 32.4312 114.742 31.9013 114.709 31.2434Z" fill="#263238"/>
<path d="M109.911 30.6905C110.103 30.0601 110.261 29.553 110.27 29.553C110.28 29.553 110.127 30.0692 109.935 30.6996C109.743 31.3301 109.58 31.8372 109.571 31.8372C109.561 31.8372 109.714 31.3209 109.911 30.6905Z" fill="#263238"/>
<path d="M105.554 28.6897C105.952 28.1506 106.278 27.7212 106.287 27.7257C106.297 27.7303 105.971 28.1826 105.573 28.7034C105.175 29.2242 104.869 29.6536 104.869 29.6536C104.869 29.6536 105.156 29.2242 105.554 28.6897Z" fill="#263238"/>
<path d="M102.127 25.446C102.683 25.0577 103.139 24.7516 103.143 24.7562C103.148 24.7607 102.698 25.0759 102.137 25.4643C101.576 25.8526 101.126 26.1541 101.121 26.1495C101.116 26.1449 101.567 25.8297 102.127 25.446Z" fill="#263238"/>
<path d="M99.9801 21.3163C100.642 21.1244 101.178 20.9737 101.178 20.9783C101.178 20.9828 100.646 21.1473 99.9849 21.3392C99.3235 21.531 98.7915 21.6772 98.7915 21.6726C98.7915 21.6681 99.3235 21.5082 99.9801 21.3163Z" fill="#263238"/>
<path d="M99.3621 16.7474C100.052 16.7474 100.608 16.7929 100.608 16.802C100.608 16.8111 100.048 16.802 99.3621 16.7702C98.6767 16.7383 98.1112 16.7201 98.116 16.7156C98.1208 16.711 98.6719 16.7201 99.3621 16.7474Z" fill="#263238"/>
<path d="M100.33 12.2296C100.977 12.4672 101.495 12.6591 101.495 12.6865C101.495 12.7139 100.967 12.5037 100.32 12.2708C99.6734 12.0378 99.1606 11.8413 99.1606 11.8368C99.1606 11.8322 99.6878 11.9967 100.33 12.2296Z" fill="#263238"/>
<path d="M102.788 8.25969C103.316 8.68455 103.747 9.03175 103.747 9.03632C103.747 9.04088 103.311 8.70282 102.788 8.27796C102.266 7.8531 101.83 7.51047 101.83 7.50591C101.83 7.50134 102.256 7.8394 102.788 8.25969Z" fill="#263238"/>
<path d="M106.46 5.27203C106.815 5.83394 107.102 6.29078 107.098 6.29535C107.093 6.29992 106.796 5.83851 106.441 5.28117C106.086 4.72382 105.799 4.26241 105.804 4.25785C105.808 4.25328 106.106 4.71012 106.46 5.27203Z" fill="#263238"/>
<path d="M110.951 3.57239C111.095 4.21653 111.21 4.73733 111.205 4.73733C111.2 4.73733 111.076 4.2211 110.927 3.57696C110.779 2.93281 110.668 2.41659 110.678 2.41202C110.688 2.40745 110.807 2.93281 110.951 3.57239Z" fill="#263238"/>
<path d="M115.777 3.36241C115.696 4.01569 115.624 4.54106 115.619 4.54106C115.614 4.54106 115.672 4.01112 115.758 3.35784C115.845 2.70456 115.912 2.1792 115.916 2.1792C115.921 2.1792 115.864 2.7 115.777 3.36241Z" fill="#263238"/>
<path d="M120.422 4.65532C120.125 5.24464 119.875 5.72433 119.87 5.71976C119.866 5.71519 120.101 5.23551 120.398 4.64162C120.695 4.04773 120.944 3.57261 120.954 3.57718C120.963 3.58175 120.719 4.07057 120.422 4.65532Z" fill="#263238"/>
<path d="M124.366 7.31392C123.887 7.77076 123.484 8.15451 123.479 8.14994C123.475 8.14537 123.868 7.76163 124.352 7.29565C124.836 6.82968 125.234 6.45507 125.238 6.45964C125.243 6.4642 124.855 6.84795 124.366 7.31392Z" fill="#263238"/>
<path d="M127.194 11.0466C126.576 11.339 126.073 11.5719 126.073 11.5674C126.073 11.5628 126.552 11.3207 127.185 11.0283C127.817 10.7359 128.306 10.5029 128.306 10.5075C128.306 10.5121 127.813 10.7542 127.194 11.0466Z" fill="#263238"/>
<path d="M128.604 15.455L127.362 15.5966C127.362 15.5966 127.913 15.5144 128.599 15.4322C129.284 15.3499 129.835 15.2814 129.835 15.286C129.835 15.2906 129.284 15.3682 128.604 15.455Z" fill="#263238"/>
<path d="M137.461 13.8788C137.195 14.6502 136.852 15.3952 136.435 16.1036L136.406 16.1538L136.311 16.3411L136.191 16.1675C135.709 15.526 135.294 14.8404 134.954 14.1209C135.507 14.7105 135.998 15.35 136.421 16.0305H136.205L136.234 15.9757C136.571 15.2405 136.982 14.5383 137.461 13.8788Z" fill="#263238"/>
<path d="M145.608 52.4591H89.2772C87.9539 52.4591 86.6848 52.9602 85.7491 53.852C84.8135 54.7439 84.2878 55.9535 84.2878 57.2148C84.2878 58.4761 84.8135 59.6857 85.7491 60.5776C86.6848 61.4695 87.9539 61.9705 89.2772 61.9705H115.638L121.538 67.3292V61.9705H145.608C146.263 61.9705 146.912 61.8475 147.518 61.6085C148.123 61.3695 148.673 61.0192 149.136 60.5776C149.6 60.136 149.967 59.6117 150.218 59.0347C150.469 58.4577 150.598 57.8393 150.598 57.2148C150.598 56.5903 150.469 55.9719 150.218 55.3949C149.967 54.8179 149.6 54.2936 149.136 53.852C148.673 53.4104 148.123 53.0601 147.518 52.8211C146.912 52.5821 146.263 52.4591 145.608 52.4591Z" fill="#FAFAFA"/>
<path d="M145.608 52.4589H145.79C145.973 52.4607 146.155 52.4745 146.336 52.5C147.048 52.591 147.73 52.8296 148.335 53.199C148.913 53.55 149.41 54.01 149.795 54.5509C150.18 55.0917 150.444 55.7019 150.572 56.3439C150.7 56.9858 150.689 57.646 150.539 58.2836C150.389 58.9213 150.104 59.5229 149.701 60.0516C149.156 60.7743 148.414 61.3401 147.554 61.6871C147.093 61.8648 146.61 61.9831 146.116 62.0388C145.603 62.0754 145.095 62.0617 144.568 62.0663H137.781H121.528L121.639 61.9612C121.639 63.6424 121.639 65.4606 121.639 67.3199V67.5712L121.447 67.3976L115.542 62.0388L115.624 62.0708H93.2215H89.3105C88.0049 62.0838 86.7436 61.6199 85.7856 60.7743C84.8277 59.9286 84.2457 58.7655 84.1592 57.5238C84.0727 56.282 84.4883 55.0558 85.3206 54.0969C86.1529 53.138 87.3387 52.5192 88.6347 52.3676C89.2578 52.3036 89.8569 52.3356 90.4608 52.3264H99.2318L123.369 52.3539L139.665 52.3904L144.089 52.4132H145.239C145.498 52.4132 145.632 52.4132 145.632 52.4132H145.239H144.089L139.665 52.4361L123.369 52.4772H99.2318H90.4608C89.8617 52.4772 89.2482 52.4772 88.6682 52.5183C87.4677 52.6605 86.3665 53.2261 85.5816 54.1036C84.9771 54.7797 84.5888 55.607 84.4629 56.4873C84.337 57.3675 84.4788 58.2637 84.8714 59.0694C85.2641 59.8751 85.891 60.5565 86.6779 61.0327C87.4648 61.5088 88.3785 61.7597 89.3105 61.7556H93.2215H115.624H115.671L115.705 61.783L121.605 67.1463L121.413 67.224C121.413 65.3646 121.413 63.5464 121.413 61.8652V61.7647H121.519H137.772H144.558C145.081 61.7647 145.598 61.7647 146.092 61.7647C146.574 61.7137 147.046 61.6016 147.496 61.4313C148.49 61.0327 149.32 60.3359 149.86 59.4467C150.4 58.5575 150.621 57.5246 150.49 56.5048C150.358 55.485 149.881 54.534 149.13 53.7964C148.38 53.0587 147.397 52.5747 146.332 52.4178C145.857 52.4635 145.608 52.4955 145.608 52.4589Z" fill="#263238"/>
<path d="M113.913 60.5772H89.2437C88.7802 60.5778 88.3212 60.4912 87.893 60.3225C87.4647 60.1537 87.0756 59.9061 86.7479 59.5937C86.4202 59.2814 86.1604 58.9105 85.9833 58.5023C85.8063 58.0941 85.7155 57.6566 85.7161 57.2148C85.7186 56.3251 86.0916 55.4727 86.753 54.8448C87.4144 54.217 88.3102 53.865 89.2437 53.8662H113.913C114.376 53.8656 114.834 53.952 115.262 54.1205C115.69 54.289 116.079 54.5362 116.407 54.8481C116.734 55.1599 116.994 55.5303 117.172 55.938C117.349 56.3456 117.44 56.7827 117.44 57.224C117.44 57.6649 117.348 58.1014 117.17 58.5086C116.993 58.9157 116.733 59.2856 116.405 59.5969C116.078 59.9083 115.689 60.1551 115.261 60.3233C114.834 60.4915 114.375 60.5778 113.913 60.5772Z" fill="#15B86C"/>
<path d="M115.978 47.5573L115.144 49.9876H114.512L113.951 48.343L113.371 49.9876H112.743L111.904 47.5573H112.537L113.112 49.2658L113.711 47.5573H114.258L114.842 49.2795L115.432 47.5573H115.978Z" fill="#263238"/>
<path d="M116.117 48.7724C116.102 48.5068 116.171 48.243 116.314 48.015C116.458 47.7869 116.67 47.6052 116.923 47.4933C117.176 47.3814 117.459 47.3444 117.734 47.3872C118.009 47.4299 118.265 47.5504 118.468 47.7331C118.671 47.9157 118.811 48.1522 118.872 48.4119C118.932 48.6715 118.909 48.9425 118.806 49.1897C118.703 49.4369 118.525 49.649 118.294 49.7985C118.064 49.9481 117.791 50.0283 117.512 50.0287C117.333 50.0386 117.153 50.0135 116.984 49.9549C116.815 49.8962 116.661 49.8053 116.53 49.6876C116.399 49.5699 116.295 49.428 116.224 49.2706C116.153 49.1132 116.117 48.9437 116.117 48.7724ZM118.308 48.7724C118.304 48.6232 118.254 48.4784 118.164 48.3561C118.075 48.2339 117.949 48.1395 117.803 48.0849C117.658 48.0303 117.498 48.0179 117.345 48.0492C117.192 48.0804 117.052 48.1541 116.943 48.2608C116.834 48.3676 116.76 48.5027 116.731 48.6493C116.701 48.7959 116.718 48.9474 116.779 49.0849C116.84 49.2224 116.942 49.3398 117.072 49.4224C117.202 49.5049 117.356 49.549 117.512 49.549C117.617 49.5491 117.722 49.5288 117.818 49.4894C117.915 49.4499 118.002 49.3921 118.075 49.3195C118.148 49.2468 118.204 49.1609 118.241 49.0668C118.277 48.9728 118.294 48.8726 118.289 48.7724H118.308Z" fill="#263238"/>
<path d="M120.978 49.9876L120.498 49.3115H119.957V49.9876H119.367V47.5573H120.47C121.15 47.5573 121.577 47.8953 121.577 48.4389C121.584 48.6034 121.537 48.7659 121.443 48.9036C121.348 49.0413 121.211 49.1473 121.05 49.2064L121.625 49.9876H120.978ZM120.422 48.0141H119.942V48.8638H120.422C120.781 48.8638 120.963 48.7039 120.963 48.4389C120.963 48.174 120.781 48.0141 120.422 48.0141Z" fill="#263238"/>
<path d="M122.957 49.0328L122.612 49.3709V49.9876H122.027V47.5573H122.602V48.6902L123.733 47.5573H124.39L123.331 48.64L124.452 49.9876H123.762L122.957 49.0328Z" fill="#263238"/>
<path d="M139.147 58.1055H138.418L138.241 58.9827H137.723L137.91 58.1055H135.84L135.907 57.7538L138.275 55.4285H138.898L136.631 57.6715H138.035L138.198 56.8995H138.677L138.514 57.6715H139.224L139.147 58.1055Z" fill="#263238"/>
<path d="M140.681 55.8716L140.374 56.8447H140.733C141.692 56.8447 142.118 57.2193 142.118 57.7949C142.118 58.5304 141.486 59.0193 140.532 59.0193C140.293 59.0325 140.055 58.9988 139.83 58.9202C139.606 58.8416 139.401 58.7198 139.228 58.5624L139.511 58.1695C139.649 58.3014 139.815 58.4041 139.997 58.471C140.18 58.5379 140.375 58.5675 140.57 58.5579C141.213 58.5579 141.586 58.2883 141.586 57.836C141.586 57.4843 141.323 57.2741 140.628 57.2741H139.727L140.307 55.4148H142.406L142.32 55.8716H140.681Z" fill="#263238"/>
<path d="M142.732 56.5613C142.716 56.4207 142.73 56.2785 142.773 56.1433C142.817 56.008 142.888 55.8824 142.983 55.7741C143.079 55.6657 143.196 55.5768 143.328 55.5127C143.46 55.4486 143.605 55.4106 143.753 55.401C143.858 55.3969 143.962 55.4146 144.059 55.4528C144.156 55.4911 144.243 55.5489 144.314 55.6223C144.385 55.6957 144.438 55.783 144.471 55.8781C144.503 55.9732 144.513 56.0738 144.501 56.173C144.517 56.3134 144.504 56.4554 144.461 56.5907C144.418 56.726 144.347 56.8516 144.252 56.96C144.157 57.0684 144.04 57.1574 143.909 57.2216C143.777 57.2857 143.632 57.3238 143.484 57.3334C143.38 57.3373 143.275 57.3196 143.178 57.2814C143.081 57.2432 142.994 57.1855 142.922 57.1121C142.851 57.0388 142.797 56.9516 142.764 56.8566C142.731 56.7615 142.72 56.6608 142.732 56.5613ZM146.039 55.4284H146.466L143.211 58.9826H142.775L146.039 55.4284ZM144.17 56.2004C144.17 55.8624 144.007 55.6888 143.738 55.6888C143.307 55.6888 143.096 56.1456 143.096 56.5339C143.096 56.9222 143.259 57.0456 143.528 57.0456C143.954 57.0638 144.17 56.607 144.17 56.2004ZM144.759 58.2379C144.743 58.0975 144.756 57.9553 144.799 57.82C144.842 57.6847 144.914 57.5592 145.009 57.451C145.105 57.3429 145.222 57.2544 145.355 57.191C145.488 57.1276 145.632 57.0905 145.78 57.0821C145.885 57.078 145.989 57.0957 146.086 57.1339C146.182 57.1722 146.269 57.2301 146.34 57.3036C146.411 57.3771 146.464 57.4645 146.495 57.5596C146.527 57.6547 146.536 57.7552 146.523 57.8542C146.54 57.9943 146.526 58.1361 146.483 58.2711C146.441 58.4061 146.37 58.5314 146.275 58.6395C146.18 58.7476 146.063 58.8361 145.931 58.8998C145.799 58.9635 145.655 59.001 145.507 59.01C145.402 59.0155 145.296 58.9988 145.198 58.9612C145.101 58.9236 145.013 58.8658 144.941 58.7922C144.869 58.7185 144.815 58.6306 144.783 58.5348C144.751 58.439 144.741 58.3377 144.755 58.2379H144.759ZM146.197 57.877C146.197 57.5435 146.029 57.3654 145.766 57.3654C145.339 57.3654 145.119 57.8222 145.119 58.2151C145.119 58.608 145.291 58.7267 145.55 58.7267C145.958 58.7267 146.173 58.2653 146.173 57.877H146.197Z" fill="#263238"/>
<g opacity="0.3">
<path d="M90.1975 53.8571L87.9113 60.5772H90.1975L92.3447 53.8571H90.1975Z" fill="white"/>
</g>
<g opacity="0.3">
<path d="M95.8433 53.8571L93.5571 60.5772H95.8433L97.9906 53.8571H95.8433Z" fill="white"/>
</g>
<g opacity="0.3">
<path d="M101.484 53.8571L99.203 60.5772H101.484L103.636 53.8571H101.484Z" fill="white"/>
</g>
<g opacity="0.3">
<path d="M107.131 53.8571L104.849 60.5772H107.131L109.283 53.8571H107.131Z" fill="white"/>
</g>
<g opacity="0.3">
<path d="M112.777 53.8571L110.491 60.5772H112.777L114.929 53.8571H112.777Z" fill="white"/>
</g>
<path d="M27.2236 148.971C27.2236 148.971 39.364 154.183 52.0077 154.183C63.712 154.183 76.1016 148.568 76.1016 148.568L27.2236 148.971Z" fill="#E0E0E0"/>
<path d="M53.3254 149.071H48.312V199.127H53.3254V149.071Z" fill="#E0E0E0"/>
<path d="M73.0626 196.189H28.5653V199.122H73.0626V196.189Z" fill="#E0E0E0"/>
<path d="M34.0105 200.086C34.0124 200.727 33.8146 201.355 33.4422 201.889C33.0697 202.423 32.5394 202.839 31.9183 203.086C31.2973 203.332 30.6135 203.397 29.9535 203.273C29.2936 203.149 28.6872 202.84 28.2112 202.387C27.7352 201.934 27.411 201.357 27.2796 200.728C27.1483 200.099 27.2157 199.447 27.4733 198.855C27.731 198.263 28.1673 197.756 28.7269 197.401C29.2866 197.045 29.9444 196.856 30.6172 196.856C31.5159 196.858 32.3776 197.198 33.0135 197.804C33.6495 198.409 34.008 199.23 34.0105 200.086Z" fill="#263238"/>
<path d="M53.7859 200.086C53.7859 200.727 53.5866 201.353 53.2132 201.886C52.8398 202.418 52.3091 202.834 51.6882 203.079C51.0673 203.324 50.384 203.388 49.7248 203.263C49.0656 203.138 48.4601 202.83 47.9849 202.377C47.5097 201.924 47.186 201.346 47.0549 200.718C46.9238 200.09 46.9911 199.439 47.2483 198.847C47.5055 198.255 47.941 197.749 48.4998 197.393C49.0587 197.037 49.7157 196.847 50.3878 196.847C51.289 196.847 52.1534 197.189 52.7906 197.796C53.4279 198.403 53.7859 199.227 53.7859 200.086Z" fill="#263238"/>
<path d="M76.691 200.086C76.691 200.727 76.4917 201.353 76.1183 201.886C75.7449 202.418 75.2142 202.834 74.5932 203.079C73.9723 203.324 73.2891 203.388 72.6299 203.263C71.9707 203.138 71.3652 202.83 70.89 202.377C70.4147 201.924 70.0911 201.346 69.96 200.718C69.8288 200.09 69.8961 199.439 70.1533 198.847C70.4105 198.255 70.8461 197.749 71.4049 197.393C71.9637 197.037 72.6207 196.847 73.2928 196.847C74.1941 196.847 75.0584 197.189 75.6957 197.796C76.333 198.403 76.691 199.227 76.691 200.086Z" fill="#263238"/>
<path d="M52.0026 167.084H45.1823V169.775H52.0026V167.084Z" fill="#E0E0E0"/>
<path d="M46.4237 165.202H43.9409V171.657H46.4237V165.202Z" fill="#E0E0E0"/>
<path d="M26.035 72.7837H46.3952V142.602H20.4752V78.0785C20.4777 76.6741 21.0645 75.3281 22.1067 74.3355C23.149 73.343 24.5616 72.7849 26.035 72.7837Z" fill="#455A64"/>
<path d="M26.2071 141.542C26.14 141.542 26.0825 126.394 26.0825 107.709C26.0825 89.0241 26.14 73.8707 26.2071 73.8707C26.2742 73.8707 26.3317 89.0195 26.3317 107.709C26.3317 126.398 26.2646 141.542 26.2071 141.542Z" fill="#263238"/>
<path d="M20.4747 142.461H84.6085V150.053H24.2851C23.2681 150.053 22.2928 149.668 21.5738 148.983C20.8547 148.297 20.4507 147.368 20.4507 146.398V142.442L20.4747 142.461Z" fill="#455A64"/>
<path d="M56.7767 45.1857L53.9968 70.4443C53.5175 74.7432 53.7524 81.1435 60.913 81.5455C67.1437 81.4496 69.3293 76.0178 69.7655 72.0113C69.9763 70.1063 70.1489 68.5211 70.1872 68.3292C70.1872 68.3292 76.998 68.3977 78.1866 62.0796C78.7617 59.0279 79.404 52.6505 79.9168 46.876C80.1822 43.8836 79.2553 40.9056 77.3208 38.5352C75.3863 36.1647 72.5862 34.5757 69.4779 34.0845L68.8356 33.9794C61.862 33.2576 57.3279 38.5067 56.7767 45.1857Z" fill="#FFBE9D"/>
<path d="M70.1868 68.3153C67.1207 67.8214 64.2678 66.499 61.967 64.5052C61.967 64.5052 63.2659 69.462 69.9903 69.9462L70.1868 68.3153Z" fill="#EB996E"/>
<path d="M68.2455 48.4661C68.1017 48.5803 67.3876 47.9225 66.2708 47.7946C65.1541 47.6667 64.2674 48.1189 64.1619 47.9727C64.1092 47.9042 64.2722 47.6804 64.6412 47.4702C65.1616 47.1984 65.7591 47.0912 66.3475 47.1641C66.9299 47.2338 67.4739 47.4787 67.9004 47.8631C68.2311 48.16 68.3174 48.4113 68.2455 48.4661Z" fill="#263238"/>
<path d="M68.1354 50.91C68.0987 51.1334 67.9719 51.3343 67.7822 51.4699C67.5924 51.6056 67.3546 51.6653 67.1194 51.6364C67.0042 51.6267 66.8922 51.5953 66.7898 51.5439C66.6875 51.4926 66.5969 51.4223 66.5233 51.3373C66.4497 51.2523 66.3946 51.1542 66.3612 51.0487C66.3277 50.9432 66.3166 50.8324 66.3285 50.7227C66.3664 50.4999 66.4934 50.2997 66.6829 50.1643C66.8724 50.0288 67.1096 49.9686 67.3446 49.9964C67.4598 50.0061 67.5718 50.0375 67.6741 50.0889C67.7765 50.1402 67.867 50.2104 67.9406 50.2955C68.0142 50.3805 68.0693 50.4786 68.1028 50.5841C68.1362 50.6896 68.1473 50.8004 68.1354 50.91Z" fill="#263238"/>
<path d="M70.331 56.1499C70.8967 56.0757 71.4697 56.068 72.0373 56.127C72.3009 56.127 72.5597 56.127 72.6316 55.9717C72.6971 55.7171 72.6804 55.4496 72.5837 55.2042L72.1475 53.1941C71.5436 50.3297 71.1554 47.9953 71.28 47.9725C71.4046 47.9496 71.9846 50.2567 72.5837 53.1119C72.7275 53.82 72.8617 54.4824 72.9911 55.1357C73.1023 55.4615 73.0887 55.8144 72.9528 56.1316C72.9015 56.2119 72.8317 56.28 72.7486 56.3307C72.6656 56.3814 72.5715 56.4133 72.4735 56.424C72.3223 56.4428 72.1693 56.4428 72.0181 56.424C71.4461 56.3988 70.8795 56.3068 70.331 56.1499Z" fill="#263238"/>
<path d="M68.1597 44.4138C68.0255 44.6423 67.1484 44.3819 66.07 44.3407C64.9916 44.2996 64.0906 44.4458 63.9851 44.2083C63.942 44.0941 64.1289 43.893 64.5171 43.7149C65.0208 43.494 65.5744 43.3967 66.1275 43.4316C66.6813 43.4594 67.2195 43.6163 67.6948 43.8885C68.0543 44.0849 68.2172 44.3042 68.1597 44.4138Z" fill="#263238"/>
<path d="M78.5937 47.3239C78.4595 47.5066 77.6063 47.2142 76.5519 47.0909C75.4975 46.9675 74.606 47.0178 74.5101 46.8076C74.4718 46.7071 74.6635 46.5518 75.0469 46.4285C75.5632 46.2846 76.1056 46.2472 76.6382 46.3188C77.1756 46.3846 77.6929 46.5557 78.1575 46.8213C78.5074 47.036 78.656 47.2371 78.5937 47.3239Z" fill="#263238"/>
<path d="M56.4983 49.946C56.3928 49.8775 52.1607 47.9359 51.552 52.285C50.9433 56.6341 55.6499 56.3189 55.6739 56.1956C55.6978 56.0722 56.4983 49.946 56.4983 49.946Z" fill="#FFBE9D"/>
<path d="M54.5142 54.3729C54.5142 54.3729 54.4232 54.414 54.2842 54.4551C54.0833 54.508 53.8687 54.4851 53.6851 54.3911C53.2058 54.1627 52.923 53.3815 53.014 52.5958C53.0536 52.2202 53.1813 51.8579 53.3879 51.5359C53.4494 51.4054 53.5437 51.2912 53.6624 51.2036C53.781 51.116 53.9205 51.0575 54.0685 51.0334C54.1623 51.0217 54.2574 51.0418 54.3371 51.0903C54.4169 51.1387 54.4762 51.2124 54.5046 51.2983C54.5526 51.4263 54.5046 51.513 54.5334 51.5222C54.5622 51.5313 54.6436 51.4628 54.6293 51.2755C54.6216 51.1652 54.5722 51.0613 54.4903 50.9831C54.3766 50.8759 54.2236 50.8153 54.0637 50.8141C53.8713 50.8266 53.6855 50.8856 53.5237 50.9855C53.3618 51.0854 53.2293 51.2229 53.1387 51.3851C52.891 51.7356 52.7379 52.1389 52.6929 52.5592C52.6019 53.4409 52.9565 54.3226 53.5892 54.5876C53.7069 54.6371 53.8348 54.6608 53.9634 54.6568C54.092 54.6529 54.218 54.6214 54.3321 54.5647C54.4903 54.4779 54.543 54.382 54.5142 54.3729Z" fill="#EB996E"/>
<path d="M68.955 59.0601C69.0173 58.955 68.145 58.6032 67.5891 57.7581C67.3618 57.3837 67.1862 56.983 67.0666 56.5657C66.966 56.2368 66.8845 56.0267 66.8318 56.0358C66.7791 56.0449 66.7743 56.2642 66.8318 56.616C66.8887 57.087 67.0523 57.5405 67.3111 57.9454C67.5744 58.3533 67.9509 58.6837 68.3991 58.9002C68.7058 59.0647 68.9215 59.0966 68.955 59.0601Z" fill="#263238"/>
<path d="M51.0921 42.3398C52.1992 40.8825 52.597 39.0643 53.2872 37.3922C53.9774 35.7202 55.1517 34.0299 56.9778 33.5822L57.0161 33.605C58.6601 33.1482 60.6156 33.2989 61.809 34.4639C62.3506 32.2208 64.6128 30.6082 66.9949 30.2336C69.377 29.8589 73.0675 30.5305 75.2148 31.6041C76.8731 32.4172 78.4068 33.9157 80.2377 36.0857C81.0139 36.9979 81.7096 37.9697 82.3178 38.9912L83.7557 45.1174L81.7235 48.0823C81.6001 48.2896 81.4657 48.4909 81.3209 48.6853L79.1258 55.1222C79.1976 53.3222 79.9406 47.1001 80.0124 45.2955C78.6022 45.1311 77.2414 44.6966 76.0118 44.0184C74.7821 43.3401 73.7089 42.4319 72.8566 41.3484C71.9364 40.1744 71.2606 38.7445 69.9473 37.977C68.2602 36.9856 66.113 37.4059 64.1623 37.8628L64.2486 37.7988C63.2325 38.1434 62.2954 38.6707 61.4879 39.3521C61.5627 42.9266 60.8287 46.4745 59.3359 49.7543C59.1106 50.2477 58.5355 51.2527 57.9891 51.4035C56.925 51.6913 56.7429 50.668 56.1773 50.0832C55.7604 49.6538 55.0894 49.5396 54.3465 49.4802C53.9795 47.9496 53.7075 46.3998 53.5317 44.8387C52.8971 44.9633 52.2409 44.9461 51.6145 44.7885L52.3382 43.491C52.0762 43.6416 51.7839 43.7381 51.4803 43.7743C51.3219 43.7932 51.1613 43.763 51.0223 43.6881C50.8833 43.6132 50.7733 43.4977 50.7086 43.3585C50.5888 43.0068 50.862 42.6459 51.0921 42.3398Z" fill="#263238"/>
<path d="M63.8507 35.3777C63.5952 35.5363 63.3518 35.7119 63.1222 35.9031C62.536 36.4648 62.1131 37.1622 61.8952 37.9268C61.7286 38.4494 61.6178 38.9866 61.5645 39.5304C61.507 40.1197 61.4974 40.7501 61.4782 41.4171C61.4728 42.1169 61.4216 42.8157 61.3248 43.5094C61.2677 43.8772 61.1828 44.2406 61.0708 44.5967C60.9737 44.9803 60.7758 45.334 60.4957 45.6246C60.3688 45.7361 60.2141 45.8147 60.0463 45.8531C59.8785 45.8915 59.7032 45.8883 59.5371 45.8439C59.2142 45.7576 58.9309 45.5711 58.7319 45.3139C58.4175 44.806 58.252 44.227 58.2526 43.6373L58.3868 43.6647C58.1332 44.1286 57.8103 44.5549 57.4282 44.9302C57.0652 45.2768 56.5759 45.4764 56.0622 45.4875C55.8246 45.4892 55.591 45.4292 55.3864 45.3139C55.1974 45.198 55.0489 45.031 54.9599 44.8343C54.8773 44.6517 54.8475 44.4513 54.8736 44.2541C54.904 44.0775 54.997 43.9162 55.1372 43.7972L55.1995 43.8658C54.6478 44.3772 53.9573 44.7316 53.2057 44.8891C53.1529 44.9048 53.0979 44.9125 53.0427 44.9119C53.0923 44.8925 53.1437 44.8772 53.1961 44.8662C53.3015 44.8343 53.4549 44.7931 53.6466 44.72C54.2009 44.513 54.706 44.2023 55.1324 43.8064L55.1995 43.8749C55.077 43.9988 54.9978 44.1558 54.9729 44.3244C54.948 44.4929 54.9786 44.6647 55.0605 44.816C55.1421 44.9916 55.2774 45.1397 55.4487 45.2408C55.6342 45.3458 55.8466 45.3995 56.0622 45.3962C56.5414 45.3782 56.9955 45.1871 57.3323 44.8617C57.6965 44.4926 58.0031 44.0757 58.243 43.6236L58.358 43.4272V43.651C58.3685 44.2162 58.5337 44.769 58.8373 45.2545C59.0197 45.476 59.2716 45.6361 59.5563 45.7114C59.6996 45.7513 59.8514 45.755 59.9968 45.7221C60.1421 45.6893 60.2761 45.6211 60.3854 45.5241C60.6436 45.2514 60.8265 44.9217 60.9174 44.5647C61.0293 44.2148 61.1142 43.8575 61.1715 43.4957C61.2679 42.808 61.3207 42.1154 61.3296 41.4217C61.3296 40.7547 61.368 40.1242 61.4303 39.5304C61.4906 38.9782 61.6094 38.4333 61.785 37.904C62.0183 37.1285 62.4652 36.4266 63.079 35.8711C63.3052 35.6663 63.5661 35.4995 63.8507 35.3777Z" fill="#455A64"/>
<path d="M83.9186 43.395L83.8611 43.4316L83.6838 43.5321C83.5886 43.5891 83.4893 43.6394 83.3866 43.6828C83.262 43.7331 83.123 43.8016 82.96 43.8519C82.0255 44.1578 81.0263 44.2394 80.0508 44.0894C78.5998 43.869 77.2466 43.2534 76.1541 42.3169C74.8408 41.1612 73.7889 39.7621 73.0627 38.2053C72.6505 37.3921 72.3294 36.5653 71.9651 35.7978C71.6374 35.0507 71.1965 34.3535 70.6567 33.7283C70.1755 33.1602 69.5503 32.7183 68.8402 32.4446C68.5193 32.3281 68.1813 32.2603 67.8384 32.2436C67.5163 32.2316 67.1939 32.2608 66.8799 32.3304C65.9313 32.548 65.1043 33.0996 64.5649 33.8745C64.3841 34.1625 64.2378 34.469 64.1287 34.7882C64.1256 34.7669 64.1256 34.7454 64.1287 34.7242C64.1287 34.6694 64.1575 34.61 64.1767 34.5323C64.2532 34.2869 64.3627 34.052 64.5026 33.8334C64.7256 33.4855 65.0092 33.1765 65.3413 32.9197C65.7813 32.5813 66.2932 32.3382 66.8415 32.207C67.5103 32.0426 68.2158 32.0761 68.8641 32.303C69.5961 32.5824 70.2423 33.0334 70.7429 33.6141C71.2926 34.2478 71.743 34.9541 72.0802 35.711C72.4492 36.4876 72.7703 37.3099 73.1777 38.1185C73.899 39.6555 74.9354 41.0394 76.226 42.189C77.3001 43.117 78.6307 43.7322 80.0603 43.9615C81.0211 44.1199 82.0078 44.0541 82.9361 43.7696C83.5879 43.5823 83.909 43.3585 83.9186 43.395Z" fill="#455A64"/>
<path d="M78.4066 49.7544C78.2628 49.8731 77.5487 49.2107 76.4319 49.0874C75.3152 48.964 74.4285 49.4072 74.3278 49.261C74.2751 49.1924 74.4333 48.9732 74.8071 48.7585C75.3282 48.4888 75.9255 48.3832 76.5134 48.4569C77.0962 48.5222 77.6411 48.7659 78.0663 49.1513C78.3922 49.4574 78.4785 49.7132 78.4066 49.7544Z" fill="#263238"/>
<path d="M77.4575 51.7369C77.4219 51.9608 77.2954 52.1624 77.1054 52.2983C76.9153 52.4341 76.6769 52.4934 76.4414 52.4633C76.3264 52.4536 76.2146 52.4221 76.1125 52.3707C76.0104 52.3193 75.9201 52.249 75.8469 52.1639C75.7737 52.0788 75.719 51.9806 75.6862 51.8751C75.6533 51.7697 75.6428 51.659 75.6554 51.5496C75.6921 51.3271 75.8182 51.127 76.0069 50.9914C76.1956 50.8559 76.4322 50.7956 76.6667 50.8232C76.7819 50.8329 76.8939 50.8644 76.9962 50.9157C77.0985 50.9671 77.1891 51.0373 77.2627 51.1223C77.3363 51.2073 77.3914 51.3054 77.4248 51.411C77.4583 51.5165 77.4694 51.6273 77.4575 51.7369Z" fill="#263238"/>
<path d="M81.8621 38.1825C82.3414 38.9546 83.1514 39.6946 84.0956 39.6946C84.4417 39.6601 84.7846 39.6005 85.1213 39.5165C85.428 39.7357 85.2363 40.7956 84.9775 41.0652C84.738 41.2932 84.4782 41.5011 84.201 41.6865C85.2363 42.358 86.2668 42.1798 87.4794 41.892C87.2582 42.8308 86.783 43.6979 86.1011 44.4073C85.4191 45.1166 84.5542 45.6433 83.5923 45.9351C83.2935 46.0515 82.9699 46.0985 82.6482 46.0723C82.3266 46.0461 82.0161 45.9474 81.7423 45.7843C81.3437 45.3933 81.11 44.8762 81.0856 44.3316C80.7695 42.3665 80.7099 40.3717 80.9083 38.3926L81.8621 38.1825Z" fill="#263238"/>
<path d="M69.4823 74.241C69.4823 74.241 73.7 75.8719 76.1013 81.4362C77.7884 85.3467 87.1729 97.6905 87.1729 97.6905L112.125 102.972L112.978 110.56L73.0674 110.244L67.522 93.4099L69.4823 74.241Z" fill="#15B86C"/>
<path d="M52.6785 67.2282L48.2498 69.0008C44.1519 70.6363 38.9085 74.4052 37.1495 78.2975C32.9269 87.6718 29.1022 99.7187 27.6356 110.377C26.1546 121.126 29.1022 137.033 29.1022 137.033L66.5539 116.635L64.3636 115.178L71.4619 78.3751L70.139 73.9209L71.0209 70.152C71.0209 70.152 61.0852 66.3511 53.8479 63.6238L52.6785 67.2282Z" fill="#15B86C"/>
<g opacity="0.3">
<path d="M49.1028 126.398C49.2402 124.571 49.3776 122.733 49.515 120.884C49.0757 121.283 48.5008 121.518 47.895 121.546C48.8319 120.694 49.6633 119.742 50.3729 118.709L48.6666 119.408C49.2684 118.967 49.7596 118.404 50.1045 117.759C49.189 117.078 47.8998 117.193 46.7495 117.302C40.8302 117.873 34.8583 117.494 28.9151 117.115C28.3198 117.083 27.7391 116.927 27.2136 116.658C27.2136 116.658 27.0938 115.105 27.3574 114.525C27.621 113.945 28.0332 114.114 28.6563 113.899C29.2888 113.716 29.9458 113.62 30.607 113.616C37.8395 113.25 45.0863 113.817 52.3044 114.388C52.7545 114.381 53.1965 114.502 53.5746 114.735C54.1641 115.192 54.1114 116.051 54.0107 116.768C53.6401 119.344 53.2726 121.919 52.9083 124.493" fill="black"/>
</g>
<path d="M71.0208 76.8949C71.0203 77.0113 71.0091 77.1275 70.9872 77.2421L70.8338 78.2243C70.6996 79.074 70.484 80.3075 70.2012 81.8242C69.6356 84.8622 68.7873 89.0423 67.8047 93.6472C66.8222 98.2521 65.8253 102.414 65.1111 105.42C64.7516 106.905 64.4593 108.115 64.2484 108.979C64.1477 109.381 64.0663 109.701 64.004 109.943C63.9817 110.057 63.9463 110.169 63.8985 110.276C63.911 110.161 63.9302 110.047 63.956 109.934C64.004 109.687 64.0711 109.362 64.1573 108.96C64.3443 108.088 64.6366 106.877 64.9386 105.383L67.5363 93.6106C68.5428 89.0057 69.4199 84.8302 70.0286 81.8013C70.321 80.3075 70.5654 79.0877 70.738 78.2152C70.8195 77.8131 70.8866 77.4888 70.9345 77.2421C70.9509 77.1239 70.9798 77.0076 71.0208 76.8949Z" fill="#263238"/>
<path d="M37.1497 129.144C37.2167 129.065 37.2922 128.993 37.3749 128.929L38.046 128.34C38.3335 128.084 38.6978 127.778 39.1339 127.426C39.5701 127.074 40.0494 126.681 40.615 126.275C41.7221 125.43 43.0881 124.484 44.6458 123.493C46.2035 122.501 48.0008 121.496 49.8844 120.528C51.768 119.559 53.6804 118.755 55.4154 118.075C57.1505 117.394 58.7417 116.868 60.0981 116.476C60.7691 116.261 61.3922 116.106 61.9338 115.959C62.4754 115.813 62.9451 115.699 63.3285 115.612L64.22 115.42C64.321 115.39 64.4257 115.371 64.5315 115.365C64.4347 115.409 64.3336 115.442 64.2296 115.466L63.3525 115.704C62.9738 115.804 62.5089 115.927 61.9721 116.087C61.4353 116.247 60.8218 116.412 60.1508 116.635C58.8088 117.051 57.2271 117.604 55.5017 118.28C53.7763 118.956 51.9118 119.783 50.0042 120.738C48.0967 121.693 46.3377 122.707 44.7704 123.675C43.2031 124.644 41.8371 125.585 40.7204 126.416C40.15 126.814 39.6612 127.207 39.2202 127.536C38.7793 127.865 38.4102 128.166 38.1083 128.408L37.4085 128.961C37.3293 129.031 37.2426 129.092 37.1497 129.144Z" fill="#263238"/>
<path d="M56.3739 115.671C56.4075 115.731 52.7649 117.682 48.226 120.03C43.6871 122.378 40.0062 124.237 39.9726 124.178C39.9391 124.118 43.5817 122.172 48.1206 119.82C52.6594 117.467 56.3404 115.617 56.3739 115.671Z" fill="#263238"/>
<g opacity="0.3">
<path d="M43.2127 87.4753C45.5372 97.069 52.6451 105.63 62.1063 109.536C55.3 102.592 48.988 95.2218 43.2127 87.4753Z" fill="black"/>
</g>
<g opacity="0.3">
<path d="M70.4264 80.1843C71.3418 84.2411 70.6612 89.3211 68.5092 92.9164L67.9772 91.8657C68.7297 88.8186 69.8081 83.4142 70.4072 80.1843" fill="black"/>
</g>
<path d="M90.3364 176.988L85.8455 189.862C85.8455 189.862 98.0722 198.542 97.4826 200.995L70.9779 193.594L77.108 173.256L90.3364 176.988Z" fill="#455A64"/>
<g opacity="0.3">
<path d="M90.3364 176.988L85.8455 189.862C85.8455 189.862 98.0722 198.542 97.4826 200.995L70.9779 193.594L77.108 173.256L90.3364 176.988Z" fill="black"/>
</g>
<path d="M77.9846 186.482C77.7071 186.484 77.4402 186.584 77.2357 186.763C77.0312 186.942 76.9036 187.187 76.8775 187.45C76.8693 187.715 76.9683 187.972 77.154 188.168C77.3397 188.365 77.5977 188.486 77.8744 188.505C78.1689 188.502 78.4516 188.395 78.6676 188.204C78.8837 188.013 79.0178 187.753 79.0439 187.473C79.0218 187.197 78.888 186.939 78.6707 186.755C78.4534 186.571 78.1696 186.475 77.8792 186.486" fill="#E0E0E0"/>
<g opacity="0.6">
<path d="M70.9779 193.595L71.6776 191.566L96.8308 199.419C96.8308 199.419 97.8613 200.237 97.4826 200.995L70.9779 193.595Z" fill="white"/>
</g>
<path d="M86.3149 189.853C86.2718 189.977 85.6104 189.853 84.8483 190.072C84.0862 190.292 83.5926 190.712 83.4871 190.63C83.3817 190.548 83.7939 189.89 84.7189 189.643C85.6439 189.396 86.3773 189.748 86.3149 189.853Z" fill="#263238"/>
<path d="M88.7593 191.726C88.7593 191.854 88.1267 191.909 87.5276 192.306C86.9285 192.704 86.6313 193.22 86.5019 193.179C86.3725 193.138 86.5019 192.421 87.264 191.936C88.026 191.452 88.7929 191.607 88.7593 191.726Z" fill="#263238"/>
<path d="M89.3632 195.34C89.2386 195.34 89.2482 194.668 89.785 194.083C90.3218 193.499 91.0168 193.398 91.0359 193.517C91.0551 193.636 90.5566 193.891 90.1397 194.376C89.7227 194.86 89.4974 195.363 89.3632 195.34Z" fill="#263238"/>
<path d="M86.9958 186.806C86.9095 186.907 86.3679 186.568 85.6202 186.413C84.8725 186.258 84.235 186.317 84.1823 186.189C84.1296 186.061 84.8294 185.778 85.7065 185.975C86.5836 186.171 87.0916 186.733 86.9958 186.806Z" fill="#263238"/>
<path d="M98.067 182.736L97.5062 196.295C97.5062 196.295 111.779 201.388 111.928 203.905L84.3113 203.814L84.2586 182.653L98.067 182.736Z" fill="#455A64"/>
<path d="M88.9703 195.125C88.7039 195.201 88.4762 195.368 88.3311 195.594C88.186 195.82 88.1337 196.089 88.1843 196.349C88.2547 196.606 88.4258 196.827 88.6622 196.966C88.8986 197.106 89.1823 197.153 89.4544 197.099C89.7355 197.018 89.975 196.84 90.1265 196.6C90.2779 196.361 90.3305 196.076 90.274 195.801C90.1732 195.541 89.9704 195.329 89.7084 195.209C89.4464 195.088 89.1457 195.07 88.8697 195.157" fill="#E0E0E0"/>
<g opacity="0.6">
<path d="M84.3113 203.814L84.3928 201.681L110.845 202.562C110.845 202.562 112.072 203.079 111.928 203.905L84.3113 203.814Z" fill="white"/>
</g>
<path d="M97.9571 196.162C97.9571 196.29 97.2765 196.345 96.6103 196.756C95.9441 197.167 95.5894 197.706 95.4648 197.67C95.3402 197.633 95.5463 196.875 96.3611 196.391C97.1759 195.906 97.9859 196.043 97.9571 196.162Z" fill="#263238"/>
<path d="M100.847 197.313C100.876 197.437 100.291 197.651 99.8309 198.195C99.3707 198.739 99.2365 199.314 99.1023 199.305C98.9681 199.296 98.8867 198.574 99.4714 197.907C100.056 197.24 100.847 197.19 100.847 197.313Z" fill="#263238"/>
<path d="M102.472 200.621C102.348 200.648 102.166 200.004 102.511 199.305C102.856 198.606 103.493 198.323 103.551 198.428C103.608 198.533 103.215 198.912 102.937 199.492C102.659 200.073 102.616 200.612 102.472 200.621Z" fill="#263238"/>
<path d="M97.7221 193.056C97.6646 193.174 97.0463 192.996 96.2843 193.056C95.5222 193.115 94.9279 193.33 94.8464 193.22C94.7649 193.11 95.3257 192.654 96.2507 192.608C97.1757 192.562 97.7892 192.955 97.7221 193.056Z" fill="#263238"/>
<path d="M64.9821 116.338C64.9821 116.338 98.0866 124.562 102.199 130.003C105.669 134.621 87.4464 181.781 87.4464 181.781L73.0677 180.597L79.2697 141.136L42.1774 129.897L47.7803 116.32L64.9821 116.338Z" fill="#263238"/>
<path d="M67.3541 123.73C67.3541 123.73 101.197 131.565 104.619 137.134C106.215 139.733 105.165 148.267 104.571 152.296C104.168 155.01 98.1869 192.982 98.1869 192.982H83.5541L83.8753 150.094L48.7145 143.338C48.7145 143.338 29.8401 144.708 29.102 137.033L36.9815 126.855L55.578 118.097L67.3541 123.73Z" fill="#263238"/>
<path d="M64.7757 122.743C64.7757 122.743 64.9434 122.78 65.255 122.867L66.6928 123.246L72.2142 124.717C74.6107 125.356 77.5439 126.138 80.9325 127.097C84.3211 128.056 88.1602 129.217 92.3253 130.72C94.4118 131.463 96.5654 132.31 98.7861 133.26L100.464 133.982C101.029 134.245 101.579 134.536 102.112 134.854C102.658 135.18 103.172 135.55 103.651 135.96C104.148 136.376 104.565 136.873 104.883 137.426C106.023 142.369 105.333 147.774 104.485 153.297C104.116 156.079 103.641 158.916 103.196 161.817C102.75 164.718 102.275 167.687 101.801 170.702C100.842 176.737 99.8837 182.987 98.8676 189.382C98.6758 190.593 98.4889 191.799 98.2972 192.996V193.101H83.4392V192.982C83.5686 176.728 83.6884 162.009 83.7843 150.099L83.861 150.186L58.8564 145.339L52.0361 144.005L50.2628 143.653C49.8601 143.571 49.6588 143.52 49.6588 143.52L50.2675 143.625L52.0505 143.954L58.8996 145.233L83.8945 149.994H83.9712V150.071C83.8897 161.981 83.7891 176.701 83.6789 192.959L83.5542 192.841H98.1822L98.0624 192.941C98.2493 191.74 98.441 190.538 98.6279 189.328L101.566 170.647C102.045 167.626 102.512 164.664 102.965 161.762C103.416 158.861 103.895 156.024 104.269 153.242C104.467 151.853 104.661 150.483 104.849 149.13C105.051 147.799 105.176 146.459 105.223 145.115C105.271 143.79 105.271 142.485 105.223 141.2C105.194 140.555 105.156 139.92 105.098 139.29C105.093 138.672 104.961 138.06 104.71 137.49C104.405 136.957 104.005 136.479 103.526 136.078C103.059 135.676 102.555 135.314 102.021 134.996C101.496 134.677 100.952 134.388 100.392 134.128L98.7238 133.401C96.5095 132.456 94.3574 131.601 92.2773 130.857C88.1219 129.345 84.2828 128.189 80.9038 127.202C77.5248 126.215 74.5915 125.439 72.1999 124.785L66.688 123.305L65.2502 122.903C64.9386 122.798 64.7757 122.743 64.7757 122.743Z" fill="#455A64"/>
<path d="M111.646 103.346C111.861 103.035 114.656 99.9609 115.408 99.9609C116.161 99.9609 117.023 100.783 117.023 100.783C117.527 100.563 118.087 100.492 118.634 100.578C119.281 100.783 122.291 103.241 122.291 104.164V105.703C122.359 106.11 122.359 106.525 122.291 106.932C122.185 107.65 120.374 108.878 120.374 108.878H110.035C110.035 108.878 108.065 107.613 108.31 106.421C108.554 105.228 111.646 103.346 111.646 103.346Z" fill="#FFBE9D"/>
<path d="M117.023 100.783C117.248 100.881 117.462 100.997 117.666 101.13L119.372 102.158C119.569 102.267 119.758 102.389 119.937 102.524C120.128 102.691 120.271 102.902 120.354 103.136C120.42 103.384 120.45 103.639 120.445 103.894L120.489 104.68C120.546 105.753 120.604 106.932 120.666 108.166L120.695 108.723V108.823L120.594 108.846L119.961 108.992H119.933C119.637 108.984 119.352 108.883 119.123 108.705C118.911 108.538 118.734 108.335 118.6 108.106C118.357 107.69 118.175 107.244 118.059 106.781C117.857 106.007 117.739 105.216 117.704 104.42L117.761 104.493L115.954 103.816C115.731 103.742 115.514 103.648 115.307 103.538C115.54 103.583 115.767 103.647 115.988 103.73L117.819 104.337H117.872V104.392C117.927 105.176 118.06 105.953 118.269 106.713C118.387 107.154 118.566 107.578 118.801 107.974C118.905 108.182 119.062 108.362 119.26 108.496C119.457 108.629 119.687 108.712 119.928 108.737H119.899L120.532 108.586L120.436 108.709L120.407 108.147C120.354 106.914 120.297 105.74 120.249 104.662C120.249 104.392 120.249 104.132 120.22 103.876C120.225 103.638 120.201 103.4 120.148 103.168C120.082 102.964 119.961 102.78 119.798 102.633C119.628 102.502 119.451 102.38 119.266 102.268L117.603 101.181C117.398 101.064 117.204 100.931 117.023 100.783Z" fill="#EB996E"/>
<path d="M110.035 108.527C110.262 108.48 110.493 108.451 110.725 108.44L112.609 108.298H112.637C113.338 108.455 114.047 108.577 114.761 108.664C115.172 108.717 115.587 108.749 116.002 108.76C116.204 108.791 116.41 108.78 116.607 108.726C116.803 108.672 116.985 108.578 117.138 108.449C117.266 108.274 117.329 108.063 117.315 107.851C117.315 107.627 117.282 107.394 117.272 107.156C117.245 106.963 117.146 106.785 116.994 106.654C116.843 106.509 116.67 106.386 116.481 106.288C115.797 105.96 115.028 105.83 114.267 105.914C113.994 105.938 113.72 105.9 113.465 105.803C113.211 105.706 112.985 105.553 112.805 105.356C112.58 105.05 112.599 104.826 112.613 104.831C112.677 104.996 112.767 105.15 112.882 105.288C113.061 105.459 113.279 105.589 113.519 105.668C113.759 105.747 114.015 105.773 114.267 105.745C115.061 105.632 115.872 105.753 116.592 106.092C116.801 106.198 116.993 106.332 117.162 106.489C117.361 106.661 117.487 106.897 117.517 107.152C117.517 107.362 117.564 107.608 117.564 107.846C117.578 108.114 117.495 108.378 117.33 108.595C117.163 108.78 116.934 108.904 116.683 108.947C116.457 108.987 116.227 109.001 115.997 108.988C115.556 108.988 115.134 108.933 114.732 108.883C114.01 108.784 113.295 108.645 112.589 108.467H112.618L110.735 108.531C110.502 108.553 110.267 108.552 110.035 108.527Z" fill="#EB996E"/>
<path d="M120.555 108.485C120.795 107.874 121.074 107.278 121.389 106.699C121.633 106.085 121.955 105.502 122.348 104.963C122.183 105.597 121.94 106.211 121.624 106.791C121.38 107.413 121.018 107.988 120.555 108.485Z" fill="#EB996E"/>
<path d="M98.1583 110.564L135.394 111.021L147.377 78.9779C147.505 78.6572 147.499 78.3019 147.361 77.985C147.223 77.6682 146.962 77.4137 146.634 77.2739C146.457 77.1956 146.265 77.1532 146.069 77.1493C145.874 77.1455 145.681 77.1803 145.5 77.2516C145.32 77.3229 145.157 77.4291 145.022 77.5635C144.888 77.6979 144.783 77.8575 144.717 78.0322L132.902 108.375L98.1247 108.704C97.8705 108.704 97.6267 108.801 97.4469 108.972C97.2672 109.143 97.1662 109.376 97.1662 109.618C97.1615 109.743 97.1839 109.868 97.2321 109.985C97.2803 110.102 97.3532 110.208 97.4463 110.297C97.5394 110.385 97.6507 110.455 97.7731 110.501C97.8956 110.547 98.0267 110.568 98.1583 110.564Z" fill="#263238"/>
<path d="M42.6708 86.7582C42.6708 86.7582 60.8838 110.359 63.7069 110.359H90.2835V100.765L70.1869 96.2467C70.1869 96.2467 60.2943 76.7397 58.0992 74.2408C55.904 71.7419 50.0519 68.375 45.676 72.1393C41.3 75.9037 42.6708 86.7582 42.6708 86.7582Z" fill="#15B86C"/>
<path d="M90.2646 101.71L94.6214 101.377C94.6214 101.377 94.7124 99.8374 95.6662 99.2937C96.62 98.7501 96.5194 97.5715 97.1041 97.6628C97.4206 97.7222 97.7462 97.7222 98.0627 97.6628L101.672 94.7665L104.715 92.866L107.112 92.4092C107.112 92.4092 108.55 92.7701 107.112 94.0355L105.588 94.8533L104.26 96.1233L107.299 94.6979C107.438 94.6336 107.592 94.6002 107.747 94.6002C107.902 94.6002 108.055 94.6336 108.195 94.6979C109.017 95.0365 109.801 95.4544 110.534 95.9451C110.599 96.0037 110.652 96.0744 110.687 96.153C110.723 96.2316 110.742 96.3163 110.742 96.402C110.742 96.4876 110.723 96.5723 110.687 96.6509C110.652 96.7295 110.599 96.8003 110.534 96.8588L111.861 97.9461C111.861 97.9461 112.149 99.3988 110.625 99.0333L109.393 98.7638L107.744 100.29C107.744 100.29 113.261 99.2024 113.64 99.376C114.018 99.5496 114.498 100.372 113.64 101.094C112.782 101.816 109.455 101.637 108.698 102.364C107.941 103.09 102.908 107.467 101.672 107.736C100.435 108.006 90.2934 110.368 90.2934 110.368L90.2646 101.71Z" fill="#FFBE9D"/>
<path d="M111.823 97.9325C111.562 97.7809 111.312 97.613 111.075 97.4299C110.85 97.27 110.596 97.0827 110.27 96.8817C110.116 96.7812 109.957 96.6807 109.791 96.5802C109.641 96.4748 109.467 96.4072 109.283 96.3838C108.905 96.4616 108.546 96.6056 108.223 96.8086C107.897 96.9777 107.61 97.1376 107.365 97.2655C107.114 97.4338 106.844 97.5747 106.56 97.6858C106.761 97.4644 106.999 97.2761 107.265 97.1284C107.5 96.9731 107.782 96.7949 108.108 96.6122C108.271 96.5208 108.444 96.4295 108.626 96.3381C108.824 96.229 109.045 96.1634 109.273 96.1462C109.339 96.1335 109.408 96.1335 109.474 96.1462C109.53 96.164 109.584 96.1853 109.637 96.2102C109.735 96.255 109.829 96.3053 109.92 96.3609C110.097 96.466 110.26 96.5711 110.399 96.6807C110.701 96.8909 110.965 97.0965 111.18 97.2746C111.617 97.6492 111.851 97.9096 111.823 97.9325Z" fill="#EB996E"/>
<path d="M98.4745 97.3113C98.5128 97.3661 98.0623 97.7407 97.5159 98.225C96.9695 98.7092 96.5573 99.1112 96.5046 99.061C96.7067 98.672 96.9925 98.328 97.3434 98.0514C97.651 97.7199 98.0394 97.4657 98.4745 97.3113Z" fill="#EB996E"/>
<path d="M58.0992 74.241C58.49 74.6998 58.8426 75.1871 59.1537 75.6983C59.7815 76.6896 60.6682 78.1698 61.7323 80.0839C63.8747 83.9122 66.8223 89.4628 70.278 96.2195L70.2109 96.1647L90.3123 100.669H90.4082V110.514H89.0806H66.4916H63.9226C63.8109 110.52 63.6988 110.52 63.5871 110.514C63.4741 110.493 63.3645 110.458 63.2612 110.409C63.0604 110.308 62.8695 110.19 62.6908 110.057C62.3568 109.82 62.0368 109.565 61.7323 109.294C60.5681 108.25 59.4626 107.147 58.4204 105.991C56.3786 103.78 54.586 101.647 52.9325 99.6915C49.6637 95.7718 47.1091 92.5328 45.3549 90.2943L43.3467 87.6994C43.1262 87.4025 42.9585 87.1787 42.8339 87.0188C42.7092 86.8589 42.6661 86.7812 42.6661 86.7812C42.6661 86.7812 42.7332 86.8543 42.8578 87.005L43.3898 87.672L45.4364 90.2303C47.2146 92.4551 49.7931 95.6759 53.0763 99.5818C54.7202 101.528 56.5368 103.652 58.5785 105.859C59.6209 107.004 60.7247 108.098 61.8856 109.134C62.1898 109.4 62.5099 109.649 62.8442 109.879C63.0078 109.992 63.1809 110.091 63.3618 110.176C63.5391 110.257 63.7364 110.291 63.9322 110.272H66.5012H89.0901H90.2932L90.1686 110.391C90.1686 107.101 90.1686 103.885 90.1686 100.797L90.2596 100.911L70.163 96.352H70.1151L70.0911 96.3109C66.6594 89.5451 63.7357 83.9762 61.6268 80.1433C60.5772 78.22 59.7097 76.7353 59.0962 75.7348C58.7846 75.2414 58.5498 74.8577 58.3629 74.6201C58.1759 74.3826 58.0992 74.241 58.0992 74.241Z" fill="#263238"/>
<path d="M55.4536 72.6968C55.4536 72.7379 54.8305 72.5003 53.8144 72.2811C53.2175 72.1549 52.6121 72.0679 52.0027 72.0207C51.2577 71.9661 50.5094 71.9661 49.7644 72.0207C49.0216 72.095 48.286 72.2249 47.5645 72.409C46.9745 72.5625 46.3964 72.7549 45.8342 72.9846C44.8757 73.382 44.3293 73.7201 44.3053 73.6836C44.4134 73.5798 44.536 73.4906 44.6696 73.4186C45.0188 73.1992 45.384 73.0038 45.7623 72.8338C46.3234 72.5766 46.9052 72.3627 47.5022 72.1943C48.2339 71.9947 48.983 71.8586 49.7405 71.7877C50.4993 71.7213 51.263 71.7213 52.0219 71.7877C52.6413 71.8481 53.255 71.9535 53.8576 72.1029C54.2614 72.2035 54.657 72.3317 55.0414 72.4866C55.3146 72.5963 55.4632 72.6785 55.4536 72.6968Z" fill="#263238"/>
<path d="M66.5254 100.628C66.8222 99.8082 67.2828 99.0511 67.8818 98.3985C68.4146 97.6945 69.0871 97.0969 69.8613 96.6396C69.9092 96.6945 68.9889 97.4437 68.0735 98.5447C67.1581 99.6456 66.5973 100.66 66.5254 100.628Z" fill="#263238"/>
<path d="M65.9162 97.6858C66.9348 96.8261 68.2615 96.3729 69.6211 96.4204C69.6211 96.4935 68.744 96.5803 67.704 96.9366C66.6639 97.2929 65.9594 97.7452 65.9162 97.6858Z" fill="#263238"/>
<path d="M82.9937 146.951C82.6103 146.188 81.6805 145.855 80.8321 145.581C64.0905 140.437 46.1267 137.97 28.8196 140.967C26.7394 141.328 24.5922 141.798 22.9387 143.059C21.2851 144.32 20.293 146.604 21.1749 148.432L24.7264 149.519C42.4482 147.638 60.3408 147.758 78.0331 149.875C79.2265 150.021 80.4823 150.163 81.5846 149.715C82.687 149.268 83.5162 147.975 82.9937 146.951Z" fill="#455A64"/>
<path d="M63.568 141.675C63.53 141.682 63.491 141.682 63.453 141.675L63.1319 141.634L61.8905 141.46C60.8169 141.296 59.2592 141.058 57.3229 140.848C52.2879 140.281 47.2173 140.05 42.1485 140.158C40.6675 140.186 39.2201 140.254 37.8349 140.364C36.4498 140.473 35.0982 140.537 33.8089 140.647C33.6494 140.659 33.4891 140.659 33.3296 140.647C33.1797 140.634 33.0289 140.634 32.8791 140.647C32.5756 140.667 32.2743 140.71 31.978 140.775L30.243 141.122C29.1262 141.36 28.1005 141.62 27.1755 141.913C25.7143 142.347 24.3189 142.961 23.0249 143.74C22.5456 144.019 22.2292 144.261 22.004 144.43L21.7451 144.617C21.6876 144.658 21.6541 144.681 21.6493 144.676L21.726 144.599L21.9704 144.393C22.2892 144.131 22.6237 143.887 22.9721 143.662C24.2561 142.842 25.6529 142.195 27.1228 141.739C28.1317 141.416 29.1571 141.141 30.195 140.917L31.9349 140.56C32.2491 140.485 32.57 140.438 32.8934 140.419C33.0529 140.405 33.2133 140.405 33.3727 140.419C33.532 140.436 33.6928 140.436 33.852 140.419C35.1221 140.304 36.4833 140.227 37.8781 140.122C39.2728 140.017 40.7538 139.939 42.1917 139.912C47.2561 139.802 52.322 140.054 57.3468 140.665C59.264 140.898 60.8361 141.163 61.9049 141.355L63.1414 141.574L63.4578 141.638L63.568 141.675Z" fill="#263238"/>
<path d="M21.6107 115.672L50.1476 116.622C50.247 116.625 50.3446 116.649 50.4339 116.691C50.5232 116.732 50.6023 116.792 50.666 116.864C50.7297 116.937 50.7767 117.022 50.8038 117.113C50.8309 117.204 50.8376 117.3 50.8234 117.394L46.7159 150.012H53.148L56.4647 114.105C56.5021 113.815 56.4759 113.521 56.3877 113.241C56.2996 112.962 56.1515 112.703 55.9527 112.481C55.754 112.259 55.5089 112.078 55.2332 111.951C54.9575 111.824 54.6571 111.753 54.351 111.743L20.8438 110.601L21.6107 115.672Z" fill="#455A64"/>
<path d="M173.273 113.296H168.801V114.242L178.646 203.933H183.237L173.273 113.296Z" fill="#455A64"/>
<path d="M73.4365 113.296H77.9082V114.26L68.7298 203.906H64.1382L73.4365 113.296Z" fill="#455A64"/>
<path d="M73.4369 113.296C73.4369 113.296 73.4369 113.456 73.3985 113.753C73.3602 114.05 73.3219 114.525 73.2643 115.124C73.1445 116.325 72.972 118.098 72.7467 120.373C72.2674 124.941 71.6204 131.533 70.8008 139.711C69.1329 156.047 66.8275 178.684 64.2585 203.901L64.1387 203.769H68.7303L68.6056 203.878C72.9576 161.767 76.6433 126.092 77.8703 114.242C77.8703 113.785 77.8703 113.529 77.8703 113.278L77.9039 113.31H74.5488H73.7245H73.4513H73.7149H74.5297L77.923 113.287H77.9566V113.324C77.9566 113.575 77.9566 113.84 77.9566 114.288C76.7536 126.138 73.1349 161.799 68.8501 203.938V204.047H64.0092V203.915C66.6166 178.67 68.9603 156.006 70.6522 139.651C71.5101 131.488 72.1955 124.9 72.6748 120.345C72.9145 118.061 73.1014 116.325 73.226 115.124C73.2931 114.534 73.341 114.082 73.3746 113.753C73.4081 113.424 73.4369 113.296 73.4369 113.296Z" fill="#263238"/>
<path d="M190.657 110.377H62.6766V114.237H190.657V110.377Z" fill="#455A64"/>
<path d="M177.03 114.242C177.03 114.306 151.523 114.361 120.067 114.361C88.611 114.361 63.0936 114.306 63.0936 114.242C63.0936 114.178 88.5966 114.123 120.067 114.123C151.537 114.123 177.03 114.169 177.03 114.242Z" fill="#263238"/>
</svg>
